<svg xmlns="http://www.w3.org/2000/svg" viewBox="0 0 512 512">
<style type="text/css">
	.st0{fill-rule:evenodd;clip-rule:evenodd;fill:#FFFCF8;}
	.st1{fill-rule:evenodd;clip-rule:evenodd;fill:url(#SVGID_1_);}

	@media (prefers-color-scheme: dark) {
	.st0{fill-rule:evenodd;clip-rule:evenodd;fill:#583F72;} /* The purple background color */
	.st1{fill-rule:evenodd;clip-rule:evenodd;fill:#EFB965;}
     }

</style>
<rect class="st0" width="512" height="512"/>
<linearGradient id="SVGID_1_" gradientUnits="userSpaceOnUse" x1="137.2993" y1="280.0388" x2="383.9141" y2="236.812" gradientTransform="matrix(1 0 0 -1 0 514)">
	<stop  offset="0" style="stop-color:#48315B"/>
	<stop  offset="0.3438" style="stop-color:#D24C5C"/>
	<stop  offset="0.6927" style="stop-color:#DF6C48"/>
	<stop  offset="1" style="stop-color:#F8B654"/>
</linearGradient>
<path class="st1" d="M402.9,218.8L402.9,218.8l0-3.9h0C401.8,134.8,336.3,70,256,70s-146.9,62.6-146.9,148.8h0
	c0.2,14.9,2.7,29.5,6.9,42.9c5.6,17.7,14.9,34,27,48L257.2,442l112.6-133.2c8.2-9.7,15.2-20.5,20.4-32.1
	C398.3,258.6,402.6,239,402.9,218.8L402.9,218.8z M393.7,216.9c0-4.7-0.2-9.3-0.7-13.9l-62.2,12.8c0.5,2.1,1,4.2,1.3,6.4
	c1.1-0.1,2.3-0.1,3.5-0.1c21,0,40.8,8.5,55.2,23.5C392.6,236.3,393.7,226.7,393.7,216.9L393.7,216.9z M391.7,193.9
	c-3-17.8-9.4-34.4-18.6-49.3l-56.3,42.5c4.6,6,8.4,12.6,11.1,19.8L391.7,193.9L391.7,193.9z M310.7,180.2
	c-5.6-5.6-12.1-10.4-19.2-14.1l34.2-68c16.7,9.8,31.1,23.1,42.4,38.8L310.7,180.2L310.7,180.2z M283.1,162.4
	c-7-2.6-14.6-4.2-22.5-4.6V79.3c20.4,0.7,39.7,5.8,57,14.5L283.1,162.4L283.1,162.4z M194.8,93.6l34.6,68.8c6.9-2.5,14.3-4.1,22-4.6
	V79.3C231.1,80,211.9,85,194.8,93.6L194.8,93.6z M144.3,136.5c11.3-15.6,25.7-28.8,42.4-38.6l34.2,68.1c-7.1,3.6-13.6,8.3-19.2,13.9
	L144.3,136.5L144.3,136.5z M120.3,193.8c3-17.9,9.6-34.7,18.9-49.6l56.4,42.6c-4.8,6-8.6,12.8-11.4,20.1L120.3,193.8L120.3,193.8z
	 M119,202.9c-0.4,4-0.6,8-0.7,12v1.9c0,9.3,0.9,18.5,2.7,27.4c14.3-14.2,33.4-22.1,53.8-22.1c1.7,0,3.4,0.1,5.1,0.2
	c0.4-2.2,0.8-4.4,1.3-6.6L119,202.9L119,202.9z M322.9,223.3c-5.4-32.4-33.6-56.5-66.8-56.5s-61.6,24.2-66.9,56.8
	c20.7,4.4,37.7,18.1,57.7,34.1l0.3,0.3c2.6,2.1,5.3,4.2,8,6.4c2.8-2.2,5.4-4.3,8-6.4l0.3-0.2C284,241.3,301.4,227.3,322.9,223.3
	L322.9,223.3z M387.9,256.5c-0.8,2.8-1.7,5.5-2.7,8.2c-5.4,14.5-13.4,27.9-23.3,39.8l-13.7,16.5l-13.8-6.3
	c-30.6-14.2-53.2-30-71.7-44.3c2-1.6,4-3.2,5.9-4.7l0.5-0.4c24.9-20,42.2-33.8,66.5-33.8C356,231.4,375.1,240.5,387.9,256.5
	L387.9,256.5z M332.7,339.3c-9.9,3.5-20.7,3.4-32.7,0c-7.9-2.3-15.6-5.7-22.9-9.1c-6.5-2.9-13.1-5.9-19.6-8
	c-16.3-5.2-31.6-4.4-45.6,2.1c-5.2,2.4-10.5,5.8-15.8,9.1l-0.2,0.1c-4.4,2.8-9.1,5.8-13.8,8.2l75,88.1L332.7,339.3L332.7,339.3z
	 M338.1,326.4c-10.1,6.6-21.7,8-35.5,4c-7.2-2.1-14.4-5.3-21.5-8.5l-0.3-0.1c-6.6-2.9-13.5-6.1-20.5-8.3
	c-18.5-5.9-36.1-5.1-52.3,2.5c-5.8,2.7-11.5,6.3-16.8,9.7l-0.1,0.1c-5.1,3.2-10.2,6.4-15.1,8.8l-25-29.3c-11.9-13.9-21-30-26.5-47.4
	c-0.3-0.9-0.6-1.9-0.9-2.9c12.8-15.1,31.4-23.7,51.2-23.7c24.3,0,41.6,13.8,66.5,33.8h0c21.5,17.3,48.3,38.8,89.1,57.7L338.1,326.4
	L338.1,326.4z"/>
</svg>
