<svg width="1440" height="668" viewBox="0 0 1440 668" fill="none" xmlns="http://www.w3.org/2000/svg">
<g clip-path="url(#clip0_119_3313)">
<g opacity="0.5">
<path d="M778.527 558.314H593.718" stroke="#BC5432" stroke-width="2" stroke-miterlimit="10"/>
<path d="M851.118 558.314L885.516 550.531C890.811 549.234 894.573 544.561 894.69 539.123C894.956 528.114 895.056 509.521 893.391 496.051C891.31 479.188 878.956 465.368 862.423 461.344L840.313 455.956C825.179 452.264 811.343 444.497 800.354 433.472L786.002 419.087C771.484 404.535 751.754 396.353 731.176 396.353H522.308C492.023 396.353 482.533 467.829 489.009 520.697" stroke="#BC5432" stroke-width="2" stroke-miterlimit="10"/>
<path d="M811.509 591.258C829.725 591.258 844.492 576.508 844.492 558.314C844.492 540.119 829.725 525.37 811.509 525.37C793.294 525.37 778.527 540.119 778.527 558.314C778.527 576.508 793.294 591.258 811.509 591.258Z" stroke="#BC5432" stroke-width="2" stroke-miterlimit="10"/>
<path d="M811.509 574.944C820.705 574.944 828.159 567.498 828.159 558.314C828.159 549.129 820.705 541.684 811.509 541.684C802.314 541.684 794.86 549.129 794.86 558.314C794.86 567.498 802.314 574.944 811.509 574.944Z" stroke="#BC5432" stroke-width="2" stroke-miterlimit="10"/>
<path d="M552.311 574.944C561.506 574.944 568.96 567.498 568.96 558.314C568.96 549.129 561.506 541.684 552.311 541.684C543.115 541.684 535.661 549.129 535.661 558.314C535.661 567.498 543.115 574.944 552.311 574.944Z" stroke="#BC5432" stroke-width="2" stroke-miterlimit="10"/>
<path d="M552.311 591.258C570.526 591.258 585.293 576.508 585.293 558.314C585.293 540.119 570.526 525.37 552.311 525.37C534.095 525.37 519.328 540.119 519.328 558.314C519.328 576.508 534.095 591.258 552.311 591.258Z" stroke="#BC5432" stroke-width="2" stroke-miterlimit="10"/>
<path d="M764.708 419.436L799.955 451.798C804.467 455.307 804.95 461.959 800.987 466.083C794.077 473.268 784.537 477.325 774.564 477.325H733.473C720.687 477.325 710.331 466.981 710.331 454.209V429.464C710.331 421.149 717.074 414.397 725.415 414.397H750.023C755.351 414.397 760.512 416.176 764.724 419.436H764.708Z" stroke="#BC5432" stroke-width="2" stroke-miterlimit="10"/>
<path d="M673.552 477.325H525.072C515.399 477.325 508.223 468.362 510.371 458.932L514.483 438.527C517.314 424.491 529.651 414.397 543.969 414.397H673.652C681.927 414.397 688.636 421.099 688.636 429.364V462.258C688.636 470.573 681.893 477.325 673.552 477.325V477.325Z" stroke="#BC5432" stroke-width="2" stroke-miterlimit="10"/>
<path d="M508.206 558.314H482.3C477.871 558.314 474.724 554.023 476.056 549.816L479.652 538.441C482.117 530.658 489.342 525.37 497.517 525.37L516.281 525.636" stroke="#BC5432" stroke-width="2" stroke-miterlimit="10"/>
<path d="M610.434 541.833H755.401" stroke="#BC5432" stroke-width="2" stroke-miterlimit="10"/>
<path d="M678.464 498.761H662.097" stroke="#BC5432" stroke-width="2" stroke-miterlimit="10"/>
<path d="M740.533 498.761H724.166" stroke="#BC5432" stroke-width="2" stroke-miterlimit="10"/>
<path d="M878.923 482.447L860.176 480.901C860.176 487.569 865.304 493.124 871.964 493.673L885.899 494.82" stroke="#BC5432" stroke-width="2" stroke-miterlimit="10"/>
<path d="M535.661 376.231L740.533 319.156" stroke="#BC5432" stroke-width="2" stroke-miterlimit="10"/>
<path d="M710.331 327.571L709.631 328.818C697.943 349.872 698.193 375.532 710.331 396.353" stroke="#BC5432" stroke-width="2" stroke-miterlimit="10"/>
<path d="M546.999 373.537L595.383 396.336" stroke="#BC5432" stroke-width="2" stroke-miterlimit="10"/>
<path d="M546.999 396.336L595.383 373.537V359.601" stroke="#BC5432" stroke-width="2" stroke-miterlimit="10"/>
<path d="M699.841 541.684V482.314" stroke="#BC5432" stroke-width="2" stroke-miterlimit="10"/>
<path d="M599.312 469.941V420.301" stroke="#BC5432" stroke-width="2" stroke-miterlimit="10"/>
<path d="M599.312 558.314V489.931" stroke="#BC5432" stroke-width="2" stroke-miterlimit="10"/>
<path d="M366.253 706.671V686.249C366.253 663.283 384.9 644.657 407.893 644.657H420.763L456.26 609.202C464.069 601.403 474.658 597.029 485.696 597.029H925.658C948.651 597.029 967.298 615.655 967.298 638.621H1005.94C1020.49 638.621 1033.98 646.204 1041.52 658.627L1074.4 712.724" stroke="#BC5432" stroke-width="2" stroke-miterlimit="10"/>
</g>
<g opacity="0.5">
<path d="M1444.57 -52.9756H-3.93098V778.53H1444.57V-52.9756Z" stroke="#BC5432" stroke-width="1.5" stroke-miterlimit="10"/>
<path d="M9.67163 675.989C23.4574 675.989 35.7946 669.819 44.0861 660.09C52.3775 669.819 64.7147 675.989 78.5005 675.989C92.2862 675.989 104.623 669.819 112.915 660.09C121.206 669.819 133.544 675.989 147.329 675.989C161.115 675.989 173.452 669.819 181.744 660.09C190.035 669.819 202.372 675.989 216.158 675.989C229.944 675.989 242.281 669.819 250.573 660.09C258.864 669.819 271.201 675.989 284.987 675.989C298.773 675.989 311.11 669.819 319.401 660.09C327.693 669.819 340.03 675.989 353.816 675.989" stroke="#BC5432" stroke-width="1.5" stroke-miterlimit="10"/>
<path d="M1160.22 672.696C1166.99 669.935 1172.95 665.578 1177.63 660.107C1185.92 669.836 1198.26 676.005 1212.05 676.005C1225.83 676.005 1238.17 669.836 1246.46 660.107C1254.75 669.836 1267.09 676.005 1280.87 676.005C1294.66 676.005 1307 669.836 1315.29 660.107C1323.58 669.836 1335.92 676.005 1349.7 676.005C1363.49 676.005 1375.83 669.836 1384.12 660.107C1392.41 669.836 1404.75 676.005 1418.53 676.005" stroke="#BC5432" stroke-width="1.5" stroke-miterlimit="10"/>
<path d="M1074.39 675.989C1088.17 675.989 1100.51 669.819 1108.8 660.09C1112.95 664.946 1118.11 668.921 1123.95 671.682" stroke="#BC5432" stroke-width="1.5" stroke-miterlimit="10"/>
<path d="M854.798 436.332C864.305 426.088 875.826 410.688 882.952 384.812C886.565 371.741 861.857 367.949 875.294 356.192C886.449 346.43 905.213 324.644 914.17 283.551C923.127 324.644 941.875 346.413 953.046 356.192C966.483 367.949 941.775 371.741 945.388 384.812C964.418 453.794 1014.55 448.339 974.957 469.243C960.006 477.142 993.072 530.924 1003.59 543.563C1018.96 562.006 964.485 568.508 950.882 567.444L891.227 567.56" stroke="#BC5432" stroke-width="1.5" stroke-miterlimit="10"/>
<path d="M810.544 393.56C820.467 385.76 831.838 373.254 838.182 354.279C844.725 373.886 856.646 386.575 866.769 394.308" stroke="#BC5432" stroke-width="1.5" stroke-miterlimit="10"/>
<path d="M747.542 385.078C750.189 375.466 732.008 372.672 741.898 364.024C750.123 356.84 763.925 340.809 770.518 310.559C777.112 340.809 790.914 356.84 799.139 364.024C809.029 372.672 790.847 375.466 793.495 385.078C795.909 393.826 799.006 400.96 802.319 406.83" stroke="#BC5432" stroke-width="1.5" stroke-miterlimit="10"/>
<path d="M472.227 514.294C459.473 495.635 447.369 472.253 458.141 467.43C501.28 448.106 446.653 453.162 425.908 389.385C421.979 377.312 448.901 373.803 434.266 362.927C422.095 353.897 401.666 333.774 391.91 295.774C382.153 333.774 361.708 353.897 349.554 362.927C334.919 373.803 361.841 377.295 357.912 389.385C337.166 453.162 282.54 448.123 325.678 467.43C341.978 474.731 305.949 524.455 294.461 536.146C273.066 557.931 406.128 565.897 465.167 555.221" stroke="#BC5432" stroke-width="1.5" stroke-miterlimit="10"/>
<path d="M529.151 361.829C520.077 352.915 509.305 338.165 503.411 315.248C495.653 345.465 479.386 361.48 469.713 368.664C458.058 377.312 479.486 380.089 476.356 389.701C471.894 403.421 465.467 413.133 459.14 420.301" stroke="#BC5432" stroke-width="1.5" stroke-miterlimit="10"/>
<path d="M580.149 347.694C577.368 341.823 574.887 335.138 572.939 327.571C570.226 338.131 566.479 346.962 562.334 354.279" stroke="#BC5432" stroke-width="1.5" stroke-miterlimit="10"/>
<path d="M997.95 518.718H1187.52" stroke="#BC5432" stroke-width="1.5" stroke-miterlimit="10"/>
<path d="M1254.17 518.718H1443.74" stroke="#BC5432" stroke-width="1.5" stroke-miterlimit="10"/>
<path d="M1444.57 574.944H1216.32V605.028H1444.57V574.944Z" stroke="#BC5432" stroke-width="1.5" stroke-miterlimit="10"/>
<path d="M1254.17 613.343V667.291" stroke="#BC5432" stroke-width="1.5" stroke-miterlimit="10"/>
<path d="M1238.77 653.987V605.028" stroke="#BC5432" stroke-width="1.5" stroke-miterlimit="10"/>
<path d="M935.964 567.544V589.994" stroke="#BC5432" stroke-width="1.5" stroke-miterlimit="10"/>
<path d="M1141.05 502.936V396.337H1261.86V502.936" stroke="#BC5432" stroke-width="1.5" stroke-miterlimit="10"/>
<path d="M1334.34 502.936V361.114H1443.74" stroke="#BC5432" stroke-width="1.5" stroke-miterlimit="10"/>
<path d="M1392.43 506.345V385.461H1418.53V506.345" stroke="#BC5432" stroke-width="1.5" stroke-miterlimit="10"/>
<path d="M1243.76 564.317L1218.69 509.671C1216.94 505.846 1218.62 501.339 1222.43 499.593L1226.5 497.73L1261.34 573.664" stroke="#BC5432" stroke-width="1.5" stroke-miterlimit="10"/>
<path d="M1219.82 514.876C1151.17 542.233 1184.07 563.087 1187.09 574.761C1192.93 597.345 1157.95 611.464 1140.52 624.751C1106.35 650.794 1168.71 670.584 1130.93 704.409" stroke="#BC5432" stroke-width="1.5" stroke-miterlimit="10"/>
<path d="M1204.24 396.337V283.568H1443.74" stroke="#BC5432" stroke-width="1.5" stroke-miterlimit="10"/>
<path d="M1299.65 272.426V207.452H1435.31" stroke="#BC5432" stroke-width="1.5" stroke-miterlimit="10"/>
<path d="M1242.56 214.786L1252.35 272.426" stroke="#BC5432" stroke-width="1.5" stroke-miterlimit="10"/>
<path d="M1190.28 102.267H1223.45L1230.14 141.68" stroke="#BC5432" stroke-width="1.5" stroke-miterlimit="10"/>
<path d="M1123.24 141.264L1129.86 102.267H1162.73" stroke="#BC5432" stroke-width="1.5" stroke-miterlimit="10"/>
<path d="M1096.65 297.837L1120.16 159.374" stroke="#BC5432" stroke-width="1.5" stroke-miterlimit="10"/>
<path d="M1170.17 377.711L924.076 175.539L862.407 231.349" stroke="#BC5432" stroke-width="1.5" stroke-miterlimit="10"/>
<path d="M894.857 297.837L828.159 214.786L804.084 207.901L664.645 41.6165L585.293 141.264L547.616 150.045L416.834 319.156" stroke="#BC5432" stroke-width="1.5" stroke-miterlimit="10"/>
<path d="M177.099 394.341L407.177 175.539L464.485 234.476" stroke="#BC5432" stroke-width="1.5" stroke-miterlimit="10"/>
<path d="M254.802 299.416C228.029 275.386 207.201 245.053 194.464 210.745H114.763C95.6161 262.331 58.1548 304.971 9.67163 330.631" stroke="#BC5432" stroke-width="1.5" stroke-miterlimit="10"/>
<path d="M-3.93098 460.945C77.6514 294.261 181.228 410.256 192.283 485.108L196.146 511.218" stroke="#BC5432" stroke-width="1.5" stroke-miterlimit="10"/>
<path d="M193.715 494.837L220.42 459.448C234.223 439.625 278.91 439.575 292.779 459.348L310.91 484.06" stroke="#BC5432" stroke-width="1.5" stroke-miterlimit="10"/>
<path d="M6.10864 609.418C27.8195 592.356 52.1277 578.22 78.6004 570.338C105.073 562.455 133.81 561.025 160.316 568.774C177.099 573.68 192.599 582.095 208.449 589.479C242.481 605.344 280.075 616.802 317.27 611.73C342.145 608.337 365.387 597.777 389.346 590.277C413.304 582.777 439.76 578.453 463.169 587.5" stroke="#BC5432" stroke-width="1.5" stroke-miterlimit="10"/>
<path d="M364.705 560.31V587.916" stroke="#BC5432" stroke-width="1.5" stroke-miterlimit="10"/>
<path d="M418.399 569.406V582.777" stroke="#BC5432" stroke-width="1.5" stroke-miterlimit="10"/>
<path d="M112.016 563.636L96.6817 440.639L89.1894 441.67L104.407 563.636" stroke="#BC5432" stroke-width="1.5" stroke-miterlimit="10"/>
<path d="M98.0469 449.836L138.039 444.697L148.928 452.197L140.237 461.743L107.038 466.017" stroke="#BC5432" stroke-width="1.5" stroke-miterlimit="10"/>
<path d="M92.6525 471.122L54.3588 475.696L45.6345 485.624L56.4067 492.758L87.9407 489" stroke="#BC5432" stroke-width="1.5" stroke-miterlimit="10"/>
<path d="M133.51 554.057C135.092 542.599 141.735 531.939 151.325 525.453C172.636 511.068 178.031 531.107 185.174 530.076C189.652 529.428 207.684 509.821 221.919 527.698C229.877 537.693 239.251 526.9 246.21 542.516C248.392 547.421 248.625 552.976 248.059 558.314C246.926 569.024 275.713 556.651 266.39 587.799C265.024 592.389 276.213 593.853 274.148 601.103" stroke="#BC5432" stroke-width="1.5" stroke-miterlimit="10"/>
<path d="M794.593 340.958C800.454 335.454 805.549 329.134 809.695 322.233C812.575 327.821 817.087 332.577 822.515 335.753" stroke="#BC5432" stroke-width="1.5" stroke-miterlimit="10"/>
<path d="M854.348 344.95L867.635 333.991C867.901 333.774 868.201 333.542 868.534 333.542C868.817 333.542 869.083 333.708 869.316 333.857L876.992 338.813" stroke="#BC5432" stroke-width="1.5" stroke-miterlimit="10"/>
<path d="M618.842 333.558L637.156 314.833C640.569 321.235 644.748 326.873 649.494 331.479" stroke="#BC5432" stroke-width="1.5" stroke-miterlimit="10"/>
<path d="M604.54 321.934C601.61 317.776 599.861 312.787 599.562 307.698C596.082 312.272 591.354 316.163 587.891 320.736" stroke="#BC5432" stroke-width="1.5" stroke-miterlimit="10"/>
<path d="M528.369 339.578L540.09 328.053C543.969 335.77 549.247 342.555 554.425 347.694" stroke="#BC5432" stroke-width="1.5" stroke-miterlimit="10"/>
<path d="M468.914 23.1404C484.098 18.5504 496.751 21.2944 496.751 21.2944L495.802 37.4589" stroke="#BC5432" stroke-width="1.5" stroke-miterlimit="10"/>
<path d="M462.22 64.7156H514.25" stroke="#BC5432" stroke-width="1.5" stroke-miterlimit="10"/>
<path d="M460.023 110.049L453.363 132.134H400.401L396.339 118.664" stroke="#BC5432" stroke-width="1.5" stroke-miterlimit="10"/>
<path d="M497.734 64.7157C497.734 59.4107 496.635 54.1057 494.421 49.4992C487.328 34.6817 471.528 19.5483 453.196 19.5483H389.879C364.904 19.5483 344.659 47.62 344.659 64.7157C344.659 81.8115 364.904 109.883 389.879 109.883H453.196C471.577 109.883 487.394 94.6832 494.47 79.8491H495.636L496.751 108.154C496.751 108.154 484.098 110.898 468.914 106.308" stroke="#BC5432" stroke-width="1.5" stroke-miterlimit="10"/>
<path d="M937.429 150.045L939.893 122.139H900.667L903.115 150.045H937.429Z" stroke="#BC5432" stroke-width="1.5" stroke-miterlimit="10"/>
<path d="M935.997 101.684L966.882 61.2732C974.807 52.1432 979.536 40.6685 979.536 28.1792C979.536 -1.52214 952.763 -25.6025 919.764 -25.6025C886.765 -25.6025 859.993 -1.52214 859.993 28.1792C859.993 40.6518 864.721 52.1432 872.646 61.2732L903.531 101.684H936.031H935.997Z" stroke="#BC5432" stroke-width="1.5" stroke-miterlimit="10"/>
<path d="M909.158 103.031L903.764 121.774" stroke="#BC5432" stroke-width="1.5" stroke-miterlimit="10"/>
<path d="M929.92 103.031L936.797 121.774" stroke="#BC5432" stroke-width="1.5" stroke-miterlimit="10"/>
<path d="M1174.83 159.374C1183.36 159.374 1190.27 152.472 1190.27 143.958C1190.27 135.444 1183.36 128.542 1174.83 128.542C1166.31 128.542 1159.4 135.444 1159.4 143.958C1159.4 152.472 1166.31 159.374 1174.83 159.374Z" stroke="#BC5432" stroke-width="1.5" stroke-miterlimit="10"/>
<path d="M1174.83 128.525V-25.3696H1193.78C1210.33 -25.3696 1223.75 -11.9658 1223.75 4.56457V81.4955H1174.83" stroke="#BC5432" stroke-width="1.5" stroke-miterlimit="10"/>
<path d="M1191.95 143.958H1346.02V162.883C1346.02 179.414 1332.6 192.818 1316.05 192.818H1239.03V143.958" stroke="#BC5432" stroke-width="1.5" stroke-miterlimit="10"/>
<path d="M1159.4 143.958H1005.33V125.033C1005.33 108.503 1018.75 95.0989 1035.29 95.0989H1112.32V143.958" stroke="#BC5432" stroke-width="1.5" stroke-miterlimit="10"/>
<path d="M1174.18 160.738V314.633H1155.24C1138.69 314.633 1125.27 301.229 1125.27 284.699V207.768H1174.18" stroke="#BC5432" stroke-width="1.5" stroke-miterlimit="10"/>
<path d="M1212.34 91.6565L1223.45 102.266" stroke="#BC5432" stroke-width="1.5" stroke-miterlimit="10"/>
<path d="M1129.86 102.266L1166.24 64.7156" stroke="#BC5432" stroke-width="1.5" stroke-miterlimit="10"/>
<path d="M371.031 399.28C373.296 403.903 376.076 408.261 379.306 412.252C382.703 409.707 385.433 406.282 387.165 402.407" stroke="#BC5432" stroke-width="1.5" stroke-miterlimit="10"/>
<path d="M400.684 354.163C404.214 357.755 407.943 361.147 411.856 364.307C409.875 366.236 407.211 367.434 404.447 367.65" stroke="#BC5432" stroke-width="1.5" stroke-miterlimit="10"/>
<path d="M339.947 506.611C339.048 509.987 338.615 513.496 338.665 516.988C341.912 517.437 345.275 517.088 348.371 515.99C349.97 517.287 350.819 519.266 351.735 521.112C352.667 522.942 353.866 524.837 355.78 525.586C357.695 526.334 360.392 525.303 360.559 523.258" stroke="#BC5432" stroke-width="1.5" stroke-miterlimit="10"/>
<path d="M439.128 516.24L439.161 525.619C439.161 526.168 439.161 526.75 438.878 527.216C438.512 527.814 437.796 528.08 437.13 528.28C433.167 529.461 428.905 529.627 424.859 528.762" stroke="#BC5432" stroke-width="1.5" stroke-miterlimit="10"/>
<path d="M494.704 370.377L498.333 374.585C498.783 375.1 499.299 375.649 499.981 375.682C500.514 375.699 500.997 375.383 501.43 375.083L505.959 371.94" stroke="#BC5432" stroke-width="1.5" stroke-miterlimit="10"/>
<path d="M896.721 369.579C897.204 371.724 898.12 373.77 899.402 375.549C899.635 375.865 899.885 376.198 900.251 376.314C900.717 376.48 901.217 376.281 901.649 376.098C904.263 374.984 906.761 373.637 909.142 372.09" stroke="#BC5432" stroke-width="1.5" stroke-miterlimit="10"/>
<path d="M941.908 413.283C941.059 415.944 943.806 419.452 941.741 421.332C939.594 423.294 936.131 419.902 933.35 420.8L931.735 428.017C931.519 428.948 931.286 429.946 930.586 430.595C929.271 431.842 927.14 431.276 925.458 430.645L915.951 427.102" stroke="#BC5432" stroke-width="1.5" stroke-miterlimit="10"/>
<path d="M896.871 456.222C897.62 459.465 898.952 462.591 900.8 465.368C904.347 464.437 907.727 462.84 910.69 460.662" stroke="#BC5432" stroke-width="1.5" stroke-miterlimit="10"/>
<path d="M954.545 506.345C955.694 508.44 956.543 510.702 957.042 513.03C952.081 513.396 947.053 512.93 942.258 511.65" stroke="#BC5432" stroke-width="1.5" stroke-miterlimit="10"/>
<path d="M914.12 531.772C914.986 534.134 916.085 536.412 917.367 538.558C920.13 537.643 922.695 536.13 924.826 534.167" stroke="#BC5432" stroke-width="1.5" stroke-miterlimit="10"/>
<path d="M418.233 444.764L425.725 454.891C426.141 455.457 426.591 456.155 426.324 456.821C426.058 457.519 425.175 457.719 424.426 457.802C421.08 458.168 417.7 458.251 414.353 458.018" stroke="#BC5432" stroke-width="1.5" stroke-miterlimit="10"/>
<path d="M364.089 481.383L370.465 491.178C373.179 489.781 375.51 487.669 377.192 485.125" stroke="#BC5432" stroke-width="1.5" stroke-miterlimit="10"/>
<path d="M758.781 367.118L760.262 374.368C762.094 373.238 764.108 372.406 766.206 371.907" stroke="#BC5432" stroke-width="1.5" stroke-miterlimit="10"/>
<path d="M846.74 402.374C846.407 405.134 844.792 407.712 842.477 409.242C840.096 408.46 837.799 407.396 835.634 406.099" stroke="#BC5432" stroke-width="1.5" stroke-miterlimit="10"/>
<path d="M1292.41 605.028V574.944" stroke="#BC5432" stroke-width="1.5" stroke-miterlimit="10"/>
<path d="M1368.48 605.028V574.944" stroke="#BC5432" stroke-width="1.5" stroke-miterlimit="10"/>
<path d="M1183.49 17.3865H1212.34" stroke="#BC5432" stroke-width="1.5" stroke-miterlimit="10"/>
<path d="M1183.49 38.7727H1212.34" stroke="#BC5432" stroke-width="1.5" stroke-miterlimit="10"/>
<path d="M1183.49 60.1589H1212.34" stroke="#BC5432" stroke-width="1.5" stroke-miterlimit="10"/>
<path d="M1135.29 227.757H1164.14" stroke="#BC5432" stroke-width="1.5" stroke-miterlimit="10"/>
<path d="M1135.29 249.127H1164.14" stroke="#BC5432" stroke-width="1.5" stroke-miterlimit="10"/>
<path d="M1135.29 270.513H1164.14" stroke="#BC5432" stroke-width="1.5" stroke-miterlimit="10"/>
<path d="M1135.29 291.883H1164.14" stroke="#BC5432" stroke-width="1.5" stroke-miterlimit="10"/>
<path d="M1321.93 153.604V182.44" stroke="#BC5432" stroke-width="1.5" stroke-miterlimit="10"/>
<path d="M1300.52 153.604V182.44" stroke="#BC5432" stroke-width="1.5" stroke-miterlimit="10"/>
<path d="M1279.13 153.604V182.44" stroke="#BC5432" stroke-width="1.5" stroke-miterlimit="10"/>
<path d="M1257.71 153.604V182.44" stroke="#BC5432" stroke-width="1.5" stroke-miterlimit="10"/>
<path d="M1089.92 105.476V134.296" stroke="#BC5432" stroke-width="1.5" stroke-miterlimit="10"/>
<path d="M1068.51 105.476V134.296" stroke="#BC5432" stroke-width="1.5" stroke-miterlimit="10"/>
<path d="M1047.12 105.476V134.296" stroke="#BC5432" stroke-width="1.5" stroke-miterlimit="10"/>
<path d="M1025.7 105.476V134.296" stroke="#BC5432" stroke-width="1.5" stroke-miterlimit="10"/>
<path d="M901.933 130.355C904.18 133.381 907.46 135.294 911.106 135.294C914.753 135.294 918.066 133.365 920.314 130.322C922.561 133.365 925.841 135.294 929.521 135.294C932.917 135.294 935.981 133.648 938.195 130.987" stroke="#BC5432" stroke-width="1.5" stroke-miterlimit="10"/>
<path d="M919.748 -25.5857C919.748 -25.5857 867.119 -2.61951 889.179 50.4971L913.088 101.701" stroke="#BC5432" stroke-width="1.5" stroke-miterlimit="10"/>
<path d="M919.165 -25.5857C919.165 -25.5857 971.794 -2.61951 949.733 50.4971L925.825 101.701" stroke="#BC5432" stroke-width="1.5" stroke-miterlimit="10"/>
<path d="M89.1894 259.903L98.5131 269.216C106.255 276.949 116.761 281.29 127.716 281.29H141.369C145.015 281.29 147.979 284.25 147.979 287.892C147.979 302.244 159.633 313.885 174.002 313.885C188.37 313.885 200.025 302.244 200.025 287.892V276.933C200.025 268.884 203.222 261.184 208.916 255.496L213.794 250.624" stroke="#BC5432" stroke-width="1.5" stroke-miterlimit="10"/>
<path d="M160.366 553.475C164.112 549.234 170.772 547.87 175.883 550.332" stroke="#BC5432" stroke-width="1.5" stroke-miterlimit="10"/>
<path d="M208.499 560.941C218.622 559.86 221.003 569.872 221.802 570.337C222.135 570.537 222.568 570.487 222.951 570.421C227.28 569.755 232.591 570.387 234.639 574.246" stroke="#BC5432" stroke-width="1.5" stroke-miterlimit="10"/>
<path d="M1141.05 414.397H1261.34" stroke="#BC5432" stroke-width="1.5" stroke-miterlimit="10"/>
<path d="M1155.37 431.343V442.086" stroke="#BC5432" stroke-width="1.5" stroke-miterlimit="10"/>
<path d="M1173.8 431.343V442.086" stroke="#BC5432" stroke-width="1.5" stroke-miterlimit="10"/>
<path d="M1192.23 431.343V442.086" stroke="#BC5432" stroke-width="1.5" stroke-miterlimit="10"/>
<path d="M1210.68 431.343V442.086" stroke="#BC5432" stroke-width="1.5" stroke-miterlimit="10"/>
<path d="M1229.11 431.343V442.086" stroke="#BC5432" stroke-width="1.5" stroke-miterlimit="10"/>
<path d="M1247.54 431.343V442.086" stroke="#BC5432" stroke-width="1.5" stroke-miterlimit="10"/>
<path d="M1155.37 456.288V467.031" stroke="#BC5432" stroke-width="1.5" stroke-miterlimit="10"/>
<path d="M1173.8 456.288V467.031" stroke="#BC5432" stroke-width="1.5" stroke-miterlimit="10"/>
<path d="M1192.23 456.288V467.031" stroke="#BC5432" stroke-width="1.5" stroke-miterlimit="10"/>
<path d="M1210.68 456.288V467.031" stroke="#BC5432" stroke-width="1.5" stroke-miterlimit="10"/>
<path d="M1229.11 456.288V467.031" stroke="#BC5432" stroke-width="1.5" stroke-miterlimit="10"/>
<path d="M1247.54 456.288V467.031" stroke="#BC5432" stroke-width="1.5" stroke-miterlimit="10"/>
<path d="M1320.63 225.762V243.173" stroke="#BC5432" stroke-width="1.5" stroke-miterlimit="10"/>
<path d="M1339.06 225.762V243.173" stroke="#BC5432" stroke-width="1.5" stroke-miterlimit="10"/>
<path d="M1357.51 225.762V243.173" stroke="#BC5432" stroke-width="1.5" stroke-miterlimit="10"/>
<path d="M1375.94 225.762V243.173" stroke="#BC5432" stroke-width="1.5" stroke-miterlimit="10"/>
<path d="M1394.37 225.762V243.173" stroke="#BC5432" stroke-width="1.5" stroke-miterlimit="10"/>
<path d="M1412.8 225.762V243.173" stroke="#BC5432" stroke-width="1.5" stroke-miterlimit="10"/>
<path d="M1320.63 266.156V283.568" stroke="#BC5432" stroke-width="1.5" stroke-miterlimit="10"/>
<path d="M1339.06 266.156V283.568" stroke="#BC5432" stroke-width="1.5" stroke-miterlimit="10"/>
<path d="M1357.51 266.156V283.568" stroke="#BC5432" stroke-width="1.5" stroke-miterlimit="10"/>
<path d="M1375.94 266.156V283.568" stroke="#BC5432" stroke-width="1.5" stroke-miterlimit="10"/>
<path d="M1394.37 266.156V283.568" stroke="#BC5432" stroke-width="1.5" stroke-miterlimit="10"/>
<path d="M1412.8 266.156V283.568" stroke="#BC5432" stroke-width="1.5" stroke-miterlimit="10"/>
<path d="M1431.25 225.762V243.173" stroke="#BC5432" stroke-width="1.5" stroke-miterlimit="10"/>
<path d="M1431.25 266.156V283.568" stroke="#BC5432" stroke-width="1.5" stroke-miterlimit="10"/>
<path d="M1155.37 481.233V491.976" stroke="#BC5432" stroke-width="1.5" stroke-miterlimit="10"/>
<path d="M1173.8 481.233V491.976" stroke="#BC5432" stroke-width="1.5" stroke-miterlimit="10"/>
<path d="M1192.23 481.233V491.976" stroke="#BC5432" stroke-width="1.5" stroke-miterlimit="10"/>
<path d="M1210.68 481.233V491.976" stroke="#BC5432" stroke-width="1.5" stroke-miterlimit="10"/>
<path d="M1229.11 481.233V486.605" stroke="#BC5432" stroke-width="1.5" stroke-miterlimit="10"/>
<path d="M1247.54 481.233V491.976" stroke="#BC5432" stroke-width="1.5" stroke-miterlimit="10"/>
<path d="M1414.89 307.216H1230.14V320.853H1414.89V307.216Z" stroke="#BC5432" stroke-width="1.5" stroke-miterlimit="10"/>
<path d="M1306 346.347H1230.14V359.983H1306V346.347Z" stroke="#BC5432" stroke-width="1.5" stroke-miterlimit="10"/>
<path d="M1414.89 350.005V346.347H1339.01V350.005" stroke="#BC5432" stroke-width="1.5" stroke-miterlimit="10"/>
<path d="M1230.14 385.461H1306V399.114H1276.35" stroke="#BC5432" stroke-width="1.5" stroke-miterlimit="10"/>
<path d="M1276.35 424.591H1306V438.228H1276.35" stroke="#BC5432" stroke-width="1.5" stroke-miterlimit="10"/>
<path d="M1276.35 463.705H1306V477.359H1276.35" stroke="#BC5432" stroke-width="1.5" stroke-miterlimit="10"/>
<path d="M1374.76 385.461H1348.95" stroke="#BC5432" stroke-width="1.5" stroke-miterlimit="10"/>
<path d="M1374.76 404.169H1348.95" stroke="#BC5432" stroke-width="1.5" stroke-miterlimit="10"/>
<path d="M1374.76 422.878H1348.95" stroke="#BC5432" stroke-width="1.5" stroke-miterlimit="10"/>
<path d="M1374.76 441.587H1348.95" stroke="#BC5432" stroke-width="1.5" stroke-miterlimit="10"/>
<path d="M1374.76 497.714H1348.95" stroke="#BC5432" stroke-width="1.5" stroke-miterlimit="10"/>
<path d="M1374.76 460.296H1348.95" stroke="#BC5432" stroke-width="1.5" stroke-miterlimit="10"/>
<path d="M1374.76 479.005H1348.95" stroke="#BC5432" stroke-width="1.5" stroke-miterlimit="10"/>
<path d="M1444.57 385.461H1431.67" stroke="#BC5432" stroke-width="1.5" stroke-miterlimit="10"/>
<path d="M1444.57 404.169H1431.67" stroke="#BC5432" stroke-width="1.5" stroke-miterlimit="10"/>
<path d="M1444.57 422.878H1431.67" stroke="#BC5432" stroke-width="1.5" stroke-miterlimit="10"/>
<path d="M1444.57 441.587H1431.67" stroke="#BC5432" stroke-width="1.5" stroke-miterlimit="10"/>
<path d="M1444.57 497.714H1431.67" stroke="#BC5432" stroke-width="1.5" stroke-miterlimit="10"/>
<path d="M1444.57 460.296H1431.67" stroke="#BC5432" stroke-width="1.5" stroke-miterlimit="10"/>
<path d="M1444.57 479.005H1431.67" stroke="#BC5432" stroke-width="1.5" stroke-miterlimit="10"/>
<path d="M981.018 428.865L996.485 396.337L1025.7 477.325" stroke="#BC5432" stroke-width="1.5" stroke-miterlimit="10"/>
<path d="M1031.58 502.936L1052.99 432.025L1074.39 502.936" stroke="#BC5432" stroke-width="1.5" stroke-miterlimit="10"/>
<path d="M1074.39 468.179L1093.6 399.114L1113.18 461.66" stroke="#BC5432" stroke-width="1.5" stroke-miterlimit="10"/>
<path d="M1108.4 502.653L1125.27 460.296L1129.86 468.179" stroke="#BC5432" stroke-width="1.5" stroke-miterlimit="10"/>
<path d="M1062.07 422.878L1041.41 375.682L1025.7 424.591" stroke="#BC5432" stroke-width="1.5" stroke-miterlimit="10"/>
<path d="M1111.57 417.374L1131.76 374.285L1136.91 386.874" stroke="#BC5432" stroke-width="1.5" stroke-miterlimit="10"/>
<path d="M447.352 64.7157H345.474V64.0838L371.331 44.0611C377.541 39.2384 385.183 36.6274 393.059 36.6274H450.716C458.891 36.6274 466.832 39.4546 473.159 44.6265L482.832 52.5258" stroke="#BC5432" stroke-width="1.5" stroke-miterlimit="10"/>
<path d="M449.35 93.8849H391.693C383.519 93.8849 375.577 91.0578 369.25 85.8858L344.675 65.7966" stroke="#BC5432" stroke-width="1.5" stroke-miterlimit="10"/>
<path d="M240.783 165.295C246.16 165.295 250.523 160.938 250.523 155.566C250.523 150.194 246.16 145.571 240.783 145.837C218.889 146.985 208.483 161.536 212.295 161.337C236.321 160.056 233.424 165.278 240.783 165.278V165.295Z" stroke="#BC5432" stroke-width="1.5" stroke-miterlimit="10"/>
<path d="M17.8965 82.959C12.7018 81.5455 9.63833 76.2072 11.0535 71.0352C12.4687 65.8633 17.8965 62.5206 22.9912 64.2003C43.8197 71.0352 50.0466 87.7984 46.417 86.6177C23.5739 79.1008 24.9891 84.8881 17.8965 82.9757V82.959Z" stroke="#BC5432" stroke-width="1.5" stroke-miterlimit="10"/>
<path d="M291.963 43.5288C295.077 53.2242 272.134 49.0999 272.134 49.0999C272.134 49.0999 288.65 33.1849 291.963 43.5288Z" stroke="#BC5432" stroke-width="1.5" stroke-miterlimit="10"/>
<path d="M52.8936 -8.47334C57.5555 -17.5367 70.8584 1.58788 70.8584 1.58788C70.8584 1.58788 47.9154 1.18875 52.8936 -8.47334Z" stroke="#BC5432" stroke-width="1.5" stroke-miterlimit="10"/>
<path d="M57.339 160.389C51.212 152.24 74.2382 148.615 74.2382 148.615C74.2382 148.615 63.8823 169.07 57.339 160.389Z" stroke="#BC5432" stroke-width="1.5" stroke-miterlimit="10"/>
<path d="M134.876 59.8929C129.797 56.201 124.703 59.4272 124.703 65.4473C124.703 65.4473 115.412 61.4727 113.464 66.9607" stroke="#BC5432" stroke-width="1.5" stroke-miterlimit="10"/>
<path d="M161.881 30.4743C163.979 28.4288 167.126 27.5142 170.006 28.1128C172.886 28.7115 175.384 30.8235 176.483 33.5509" stroke="#BC5432" stroke-width="1.5" stroke-miterlimit="10"/>
<path d="M174.251 87.2661C184.424 78.2858 192.449 86.3348 192.666 91.6066C196.112 89.9435 200.874 90.7917 203.072 93.9181" stroke="#BC5432" stroke-width="1.5" stroke-miterlimit="10"/>
<path d="M124.736 109.434C125.918 97.5934 138.389 98.4082 142.085 102.715" stroke="#BC5432" stroke-width="1.5" stroke-miterlimit="10"/>
<path d="M1442.87 -2.35352C1428.32 -2.35352 1415.73 5.96154 1409.56 18.1015C1402.15 11.2665 1392.26 7.09238 1381.39 7.09238C1365.5 7.09238 1351.7 16.0061 1344.72 29.094C1332.79 23.9886 1323.86 29.0441 1319.6 35.9456" stroke="#BC5432" stroke-width="1.5" stroke-miterlimit="10"/>
<path d="M143.267 210.745V157.512C143.267 145.289 133.344 135.36 121.09 135.36H113.614C96.1489 135.36 85.127 118.614 90.1218 103.747C91.2207 100.471 89.589 96.7953 86.359 95.5646C77.2851 92.1222 70.8417 83.3748 70.8417 73.0974C70.8417 62.8199 77.1519 54.2721 86.0593 50.7465C88.9397 49.599 90.6213 46.589 90.1051 43.529C87.2248 26.1838 104.623 11.566 121.073 16.8044C124.486 17.902 128.216 15.9064 129.315 12.4806C138.155 -15.0755 179.646 -14.8593 188.404 12.4806C189.552 16.0561 193.432 18.1348 196.978 16.8876C215.059 10.485 233.657 29.0109 227.646 47.0712C226.481 50.5636 228.196 54.322 231.659 55.5859C251.322 62.8532 251.921 92.9038 231.742 100.437C228.812 101.535 226.964 104.495 227.463 107.588C229.744 121.907 218.323 135.344 203.022 135.344H194.897C182.659 135.344 172.72 145.255 172.72 157.495V210.728" stroke="#BC5432" stroke-width="1.5" stroke-miterlimit="10"/>
<path d="M1025.7 547.488H1155.37" stroke="#BC5432" stroke-width="1.5" stroke-miterlimit="10"/>
<path d="M1289.38 547.488H1419.03" stroke="#BC5432" stroke-width="1.5" stroke-miterlimit="10"/>
<path d="M966.766 587.916H1096.41" stroke="#BC5432" stroke-width="1.5" stroke-miterlimit="10"/>
<path d="M1040.51 629.508H1113.18" stroke="#BC5432" stroke-width="1.5" stroke-miterlimit="10"/>
<path d="M1183.49 629.508H1219.82" stroke="#BC5432" stroke-width="1.5" stroke-miterlimit="10"/>
<path d="M923.677 177.335C921.712 189.475 920.63 201.764 920.463 214.071C920.364 221.205 920.68 228.722 924.459 234.775C932.984 248.495 954.512 248.295 964.285 261.167C974.99 275.269 966.133 297.155 975.34 312.271C978.304 317.111 982.899 320.819 985.696 325.758C990.191 333.724 989.309 343.519 988.277 352.599" stroke="#BC5432" stroke-width="1.5" stroke-miterlimit="10"/>
<path d="M664.478 42.9136C667.059 99.2896 672.42 108.253 641.452 134.313C602.925 166.725 649.843 187.645 636.69 215.185C630.13 228.905 607.021 237.536 599.312 250.64C592.336 262.514 590.971 279.943 588.84 293.546" stroke="#BC5432" stroke-width="1.5" stroke-miterlimit="10"/>
<path d="M406.012 178.432L407.311 208.649C409.675 263.196 371.015 234.476 360.576 295.758V330.631" stroke="#BC5432" stroke-width="1.5" stroke-miterlimit="10"/>
<path d="M51.5617 412.235L54.7417 417.49L58.4545 412.235" stroke="#BC5432" stroke-width="1.5" stroke-miterlimit="10"/>
<path d="M155.304 488.551L158.501 493.806L162.214 488.551" stroke="#BC5432" stroke-width="1.5" stroke-miterlimit="10"/>
<path d="M33.3139 529.311L36.4939 534.566L40.2067 529.311" stroke="#BC5432" stroke-width="1.5" stroke-miterlimit="10"/>
<path d="M100.611 406.83L102.159 412.235" stroke="#BC5432" stroke-width="1.5" stroke-miterlimit="10"/>
<path d="M280.908 503.917L282.473 509.322" stroke="#BC5432" stroke-width="1.5" stroke-miterlimit="10"/>
<path d="M31.7488 460.612L33.3139 466.017" stroke="#BC5432" stroke-width="1.5" stroke-miterlimit="10"/>
<path d="M125.835 502.137L127.383 507.559" stroke="#BC5432" stroke-width="1.5" stroke-miterlimit="10"/>
<path d="M140.237 423.061L138.372 427.834" stroke="#BC5432" stroke-width="1.5" stroke-miterlimit="10"/>
<path d="M74.8209 522.975L72.9728 527.748" stroke="#BC5432" stroke-width="1.5" stroke-miterlimit="10"/>
<path d="M37.6927 558.48L35.8279 563.253" stroke="#BC5432" stroke-width="1.5" stroke-miterlimit="10"/>
<path d="M241.099 469.642L244.296 474.897L248.009 469.642" stroke="#BC5432" stroke-width="1.5" stroke-miterlimit="10"/>
<path d="M267.472 539.206L270.668 544.461L274.381 539.206" stroke="#BC5432" stroke-width="1.5" stroke-miterlimit="10"/>
<path d="M282.623 463.306L280.758 468.079" stroke="#BC5432" stroke-width="1.5" stroke-miterlimit="10"/>
<path d="M306.099 576.092L304.25 580.864" stroke="#BC5432" stroke-width="1.5" stroke-miterlimit="10"/>
<path d="M245.478 498.812L243.63 503.584" stroke="#BC5432" stroke-width="1.5" stroke-miterlimit="10"/>
<path d="M377.192 569.406V594.318" stroke="#BC5432" stroke-width="1.5" stroke-miterlimit="10"/>
<path d="M387.165 560.31V574.944" stroke="#BC5432" stroke-width="1.5" stroke-miterlimit="10"/>
<path d="M409.725 573.082L406.994 569.323C405.196 566.862 404.23 563.902 404.23 560.858" stroke="#BC5432" stroke-width="1.5" stroke-miterlimit="10"/>
<path d="M901.65 567.627V576.491C901.65 580.199 900.268 583.775 897.77 586.519L897.121 587.234" stroke="#BC5432" stroke-width="1.5" stroke-miterlimit="10"/>
<path d="M919.198 568.176C919.198 571.219 920.164 574.179 921.962 576.641L922.228 576.99C923.843 579.202 924.709 581.846 924.742 584.59L924.842 595.715" stroke="#BC5432" stroke-width="1.5" stroke-miterlimit="10"/>
<path d="M85.41 297.837C85.41 297.837 87.4745 310.293 98.0636 301.944" stroke="#BC5432" stroke-width="1.5" stroke-miterlimit="10"/>
<path d="M195.196 336.967C195.196 336.967 203.771 346.247 208.017 333.458" stroke="#BC5432" stroke-width="1.5" stroke-miterlimit="10"/>
<path d="M117.161 326.457C117.161 326.457 119.225 338.913 129.814 330.565" stroke="#BC5432" stroke-width="1.5" stroke-miterlimit="10"/>
<path d="M45.2349 341.191C45.2349 341.191 47.2994 353.647 57.8885 345.299" stroke="#BC5432" stroke-width="1.5" stroke-miterlimit="10"/>
<path d="M151.625 361.613C151.625 361.613 157.752 372.655 164.911 361.247C164.911 361.247 168.174 364.773 172.47 360.931" stroke="#BC5432" stroke-width="1.5" stroke-miterlimit="10"/>
<path d="M219.138 309.112C219.138 309.112 228.679 317.394 231.509 304.222C231.509 304.222 235.771 306.418 238.502 301.345" stroke="#BC5432" stroke-width="1.5" stroke-miterlimit="10"/>
<path d="M299.139 314.051L261.861 358.686" stroke="#BC5432" stroke-width="1.5" stroke-miterlimit="10"/>
<path d="M292.263 376.231L267.472 422.313" stroke="#BC5432" stroke-width="1.5" stroke-miterlimit="10"/>
<path d="M344.659 284.932L334.453 301.329" stroke="#BC5432" stroke-width="1.5" stroke-miterlimit="10"/>
<path d="M712.811 168.388L732.341 197.058" stroke="#BC5432" stroke-width="1.5" stroke-miterlimit="10"/>
<path d="M705.702 234.476L712.811 272.426" stroke="#BC5432" stroke-width="1.5" stroke-miterlimit="10"/>
<path d="M783.289 254.532L811.509 293.546" stroke="#BC5432" stroke-width="1.5" stroke-miterlimit="10"/>
<path d="M1018.31 285.464L1033.11 298.319" stroke="#BC5432" stroke-width="1.5" stroke-miterlimit="10"/>
<path d="M1082.36 344.684L1111.57 367.783" stroke="#BC5432" stroke-width="1.5" stroke-miterlimit="10"/>
<path d="M1025.27 331.446L1055.76 363.941" stroke="#BC5432" stroke-width="1.5" stroke-miterlimit="10"/>
<path d="M818.186 5.84508C813.874 -1.45554 805.932 -6.37805 796.825 -6.37805C791.047 -6.37805 785.753 -4.38243 781.54 -1.08967C774.564 -14.1776 760.762 -23.0913 744.878 -23.0913C726.331 -23.0913 710.614 -10.9347 705.286 5.84508" stroke="#BC5432" stroke-width="1.5" stroke-miterlimit="10"/>
<path d="M609.268 30.0752C606.105 25.8511 601.077 23.1072 595.383 23.1072C589.689 23.1072 584.661 25.8511 581.497 30.0752" stroke="#BC5432" stroke-width="1.5" stroke-miterlimit="10"/>
<path d="M868.684 97.3772C865.52 93.1532 860.492 90.4092 854.798 90.4092C849.104 90.4092 844.076 93.1532 840.912 97.3772" stroke="#BC5432" stroke-width="1.5" stroke-miterlimit="10"/>
<path d="M1110.85 23.9719C1107.69 19.7479 1102.66 17.0039 1096.96 17.0039C1091.27 17.0039 1086.24 19.7479 1083.08 23.9719" stroke="#BC5432" stroke-width="1.5" stroke-miterlimit="10"/>
<path d="M1348.22 95.1487C1345.06 90.9246 1340.03 88.1807 1334.34 88.1807C1328.64 88.1807 1323.61 90.9246 1320.45 95.1487" stroke="#BC5432" stroke-width="1.5" stroke-miterlimit="10"/>
<path d="M1425.47 151.791C1423.89 149.679 1421.38 148.299 1418.53 148.299C1415.68 148.299 1413.17 149.662 1411.59 151.791" stroke="#BC5432" stroke-width="1.5" stroke-miterlimit="10"/>
<path d="M1025.26 57.598C1023.67 55.486 1021.16 54.1057 1018.31 54.1057C1015.47 54.1057 1012.95 55.4694 1011.37 57.598" stroke="#BC5432" stroke-width="1.5" stroke-miterlimit="10"/>
<path d="M1069.01 209.198C1067.43 207.086 1064.91 205.706 1062.07 205.706C1059.22 205.706 1056.71 207.069 1055.12 209.198" stroke="#BC5432" stroke-width="1.5" stroke-miterlimit="10"/>
<path d="M813.407 145.688C811.826 143.576 809.312 142.195 806.465 142.195C803.618 142.195 801.104 143.559 799.522 145.688" stroke="#BC5432" stroke-width="1.5" stroke-miterlimit="10"/>
<path d="M334.669 155.35C333.087 153.238 330.573 151.857 327.726 151.857C324.879 151.857 322.365 153.221 320.783 155.35" stroke="#BC5432" stroke-width="1.5" stroke-miterlimit="10"/>
<path d="M553.942 98.7077C552.361 96.5956 549.847 95.2153 546.999 95.2153C544.152 95.2153 541.638 96.579 540.057 98.7077" stroke="#BC5432" stroke-width="1.5" stroke-miterlimit="10"/>
</g>
</g>
<defs>
<clipPath id="clip0_119_3313">
<rect width="1451" height="834" fill="white" transform="translate(-5.17969 -54.2229)"/>
</clipPath>
</defs>
</svg>
