<svg xmlns="http://www.w3.org/2000/svg" viewBox="0 0 512 512" style="enable-background:new 0 0 512 512" xml:space="preserve"><path style="fill-rule:evenodd;clip-rule:evenodd;fill:#291d33" d="M0 0h512v512H0z"/><linearGradient id="a" gradientUnits="userSpaceOnUse" x1="99.193" y1="286.112" x2="424.955" y2="229.012" gradientTransform="matrix(1 0 0 -1 0 513)"><stop offset="0" style="stop-color:#48305a"/><stop offset=".344" style="stop-color:#d24b5b"/><stop offset=".693" style="stop-color:#df6c48"/><stop offset="1" style="stop-color:#f9b653"/></linearGradient><path d="M450 206.8v-5.1C448.6 95.8 362.1 10 256 10S62 92.8 62 206.8c.2 19.7 3.6 39 9.2 56.7 7.4 23.4 19.7 44.9 35.6 63.5l150.7 175 148.7-176.2c10.9-12.9 20.1-27.1 26.9-42.5 10.8-23.9 16.5-49.8 16.9-76.5zm-12.2-2.5c0-6.2-.3-12.3-.9-18.3l-82.2 16.9c.7 2.8 1.3 5.6 1.7 8.5 1.5-.1 3-.1 4.6-.1 27.8 0 53.9 11.2 72.9 31.1 2.6-12.5 3.9-25.2 3.9-38.1zm-2.5-30.5c-4-23.5-12.5-45.6-24.6-65.1l-74.4 56.2c6.1 7.9 11.1 16.7 14.7 26.2l84.3-17.3zm-107-18c-7.4-7.5-16-13.8-25.4-18.6L348 47.3c22 13 41.1 30.5 55.9 51.3l-75.6 57.2zm-36.6-23.6c-9.3-3.4-19.3-5.6-29.7-6.1V22.3c27 .9 52.5 7.7 75.3 19.1l-45.6 90.8zm-116.6-91 45.6 90.9c9.2-3.4 18.9-5.4 29.1-6V22.3c-26.7.9-52 7.6-74.7 18.9zM108.4 98c14.9-20.7 34-38.1 56-51l45.2 90c-9.4 4.8-17.9 11-25.3 18.4L108.4 98zm-31.7 75.7c4-23.7 12.6-45.9 24.9-65.6l74.5 56.4c-6.3 8-11.4 16.9-15.1 26.6l-84.3-17.4zm-1.6 12.1c-.5 5.2-.8 10.5-.9 15.9v2.6c0 12.3 1.2 24.4 3.6 36.2 18.8-18.7 44.2-29.3 71.1-29.3 2.3 0 4.5.1 6.7.2.5-2.9 1.1-5.8 1.8-8.7l-82.3-16.9zm269.2 27c-7.2-42.9-44.4-74.7-88.3-74.7s-81.3 31.9-88.4 75.1c27.4 5.8 49.9 23.9 76.2 45.1l.4.3c3.4 2.8 7 5.6 10.6 8.5 3.6-2.9 7.2-5.7 10.6-8.5l.4-.3c27.2-21.7 50.2-40.2 78.5-45.5zm85.9 43.8c-1.1 3.6-2.3 7.3-3.6 10.8-7.1 19.2-17.7 36.9-30.8 52.6l-18.1 21.8-18.2-8.3c-40.4-18.8-70.3-39.7-94.7-58.6 2.6-2.1 5.2-4.2 7.7-6.2l.7-.5c32.8-26.4 55.7-44.7 87.8-44.7 27.1-.1 52.3 12 69.2 33.1zm-72.8 109.6c-13 4.6-27.4 4.5-43.2 0-10.4-3-20.6-7.6-30.3-12-8.6-3.9-17.3-7.8-25.9-10.5-21.6-6.9-41.8-5.9-60.2 2.8-6.8 3.2-13.9 7.7-20.8 12.1l-.2.2c-5.9 3.7-12 7.6-18.3 10.9l99.1 116.5 99.8-120zm7-17.1c-13.4 8.8-28.7 10.6-46.9 5.3-9.4-2.7-19-7-28.4-11.3l-.3-.2c-8.7-3.9-17.8-8-27.1-11-24.4-7.8-47.7-6.7-69 3.3-7.6 3.6-15.1 8.3-22.2 12.8l-.1.1c-6.7 4.2-13.4 8.5-20 11.7l-33-38.7c-15.7-18.4-27.8-39.6-35-62.7-.4-1.3-.8-2.5-1.1-3.8 16.9-19.9 41.4-31.3 67.7-31.3 32.1 0 55 18.3 87.8 44.7 28.4 22.8 63.8 51.3 117.6 76.4l10 4.7z" style="fill-rule:evenodd;clip-rule:evenodd;fill:url(#a)"/></svg>