<svg width="304" height="385" viewBox="0 0 304 385" fill="none" xmlns="http://www.w3.org/2000/svg">
<path fill-rule="evenodd" clip-rule="evenodd" d="M303.99 154H304V150H303.99C302.91 67.11 235.15 0 152 0C68.85 0 0 64.76 0 154H0.03C0.22 169.45 2.86 184.54 7.21 198.37C12.97 216.67 22.61 233.51 35.14 248.03L153.25 384.99L269.79 247.11C278.31 237.03 285.52 225.89 290.9 213.85C299.25 195.15 303.71 174.9 303.98 154.01L303.99 154ZM294.47 152.01C294.47 147.17 294.23 142.38 293.75 137.67L229.33 150.93C229.87 153.1 230.32 155.32 230.68 157.56C231.86 157.5 233.06 157.47 234.27 157.47C256.04 157.47 276.48 166.26 291.36 181.79C293.42 172.1 294.46 162.13 294.47 152.01V152.01ZM292.48 128.2C289.37 109.78 282.71 92.55 273.23 77.23L214.96 121.24C219.75 127.4 223.65 134.31 226.48 141.78L292.48 128.2V128.2ZM208.65 114.06C202.85 108.22 196.15 103.29 188.75 99.49L224.1 29.16C241.37 39.34 256.31 53.04 267.93 69.29L208.64 114.06H208.65ZM180.01 95.65C172.72 92.96 164.91 91.3 156.75 90.84V9.62C177.89 10.31 197.87 15.63 215.73 24.6L180.01 95.65V95.65ZM88.65 24.41L124.41 95.57C131.59 92.94 139.25 91.31 147.22 90.84V9.62C126.24 10.31 106.4 15.56 88.65 24.41V24.41ZM36.37 68.87C48.03 52.69 62.99 39.06 80.26 28.95L115.66 99.39C108.31 103.14 101.61 108 95.8 113.77L36.37 68.87V68.87ZM11.54 128.12C14.69 109.55 21.44 92.19 31.05 76.79L89.44 120.9C84.52 127.13 80.51 134.13 77.61 141.72L11.55 128.12H11.54ZM10.26 137.59C9.85 141.69 9.61 145.84 9.55 150.04V152.04C9.55 161.66 10.5 171.15 12.36 180.39C27.11 165.74 46.97 157.47 68.07 157.47C69.86 157.47 71.61 157.54 73.34 157.66C73.71 155.36 74.17 153.09 74.73 150.86L10.26 137.59V137.59ZM221.2 158.68C215.58 125.13 186.4 100.23 152.02 100.23C117.64 100.23 88.3 125.23 82.79 159C104.25 163.54 121.85 177.69 142.53 194.31L142.85 194.57C145.54 196.73 148.31 198.95 151.17 201.23C154.02 198.96 156.78 196.74 159.49 194.57L159.77 194.35C180.99 177.29 198.98 162.83 221.2 158.68V158.68ZM288.51 192.98C287.66 195.83 286.71 198.66 285.68 201.45C280.12 216.46 271.81 230.3 261.56 242.59L247.34 259.63L233.05 253.1C201.4 238.39 178 222.06 158.88 207.27C160.95 205.62 162.97 204 164.95 202.41L165.48 201.98C191.2 181.33 209.14 167.01 234.28 167.01C255.47 167.01 275.23 176.48 288.52 192.98H288.51ZM231.42 278.72C221.22 282.31 209.98 282.27 197.55 278.69C189.38 276.34 181.4 272.74 173.84 269.31C167.1 266.28 160.29 263.21 153.54 261.06C136.65 255.68 120.81 256.46 106.37 263.22C101.01 265.73 95.49 269.22 90.05 272.68L89.87 272.8C85.27 275.71 80.46 278.76 75.55 281.3L153.22 372.43L231.41 278.72H231.42ZM236.95 265.35C226.45 272.23 214.45 273.62 200.19 269.52C192.79 267.38 185.3 264.01 177.91 260.68L177.64 260.56C170.85 257.51 163.7 254.29 156.44 251.97C137.32 245.9 119.09 246.74 102.34 254.58C96.38 257.37 90.49 261.09 84.94 264.62L84.84 264.69C79.59 268.01 74.33 271.34 69.18 273.81L43.35 243.51C31.08 229.11 21.57 212.5 15.95 194.44C15.65 193.46 15.35 192.48 15.07 191.49C28.33 175.9 47.53 167.01 68.08 167.01C93.22 167.01 111.15 181.31 136.88 201.98H136.89C159.11 219.84 186.9 242.16 229.06 261.74L236.95 265.35V265.35Z" fill="url(#paint0_linear_2_2)"/>
<defs>
<linearGradient id="paint0_linear_2_2" x1="64.8046" y1="-33.7028" x2="320.031" y2="11.0335" gradientUnits="userSpaceOnUse">
<stop stop-color="#48305A"/>
<stop offset="0.34375" stop-color="#D24B5B"/>
<stop offset="0.692708" stop-color="#DF6C48"/>
<stop offset="1" stop-color="#F9B653"/>
</linearGradient>
</defs>
</svg>
