<?xml version="1.0" encoding="utf-8"?>
<!-- Generator: Adobe Illustrator 26.5.0, SVG Export Plug-In . SVG Version: 6.00 Build 0)  -->
<svg version="1.1" id="Layer_1" xmlns="http://www.w3.org/2000/svg" xmlns:xlink="http://www.w3.org/1999/xlink" x="0px" y="0px"
	 viewBox="0 0 200 90" style="enable-background:new 0 0 200 90;" xml:space="preserve">
<style type="text/css">
	.st0{fill-rule:evenodd;clip-rule:evenodd;fill:#EFB965;}
	.st1{fill:#EFB965;}
</style>
<path class="st0" d="M70.5,36L70.5,36l0-0.9h0C70.3,15.7,54.6,0,35.3,0C16,0,0,15.1,0,36h0c0,3.6,0.7,7.1,1.7,10.4
	C3,50.7,5.2,54.6,8.2,58l27.4,32l27-32.2c2-2.4,3.6-5,4.9-7.8C69.4,45.6,70.5,40.9,70.5,36L70.5,36z M68.3,35.5
	c0-1.1-0.1-2.3-0.2-3.4l-14.9,3.1c0.1,0.5,0.2,1,0.3,1.5c0.3,0,0.6,0,0.8,0c5.1,0,9.8,2.1,13.2,5.7C68.1,40.2,68.3,37.9,68.3,35.5
	L68.3,35.5z M67.9,30c-0.7-4.3-2.3-8.3-4.5-11.9L49.9,28.3c1.1,1.4,2,3.1,2.7,4.8L67.9,30L67.9,30z M48.4,26.7
	c-1.3-1.4-2.9-2.5-4.6-3.4L52,6.8c4,2.4,7.5,5.6,10.2,9.4L48.4,26.7L48.4,26.7z M41.8,22.4c-1.7-0.6-3.5-1-5.4-1.1v-19
	c4.9,0.2,9.5,1.4,13.7,3.5L41.8,22.4L41.8,22.4z M20.6,5.7l8.3,16.6c1.7-0.6,3.4-1,5.3-1.1v-19C29.3,2.4,24.7,3.6,20.6,5.7L20.6,5.7
	z M8.4,16.1c2.7-3.8,6.2-7,10.2-9.3l8.2,16.5c-1.7,0.9-3.3,2-4.6,3.4L8.4,16.1L8.4,16.1z M2.7,30c0.7-4.3,2.3-8.4,4.5-12l13.5,10.3
	c-1.1,1.5-2.1,3.1-2.7,4.9L2.7,30L2.7,30z M2.4,32.2c-0.1,1-0.2,1.9-0.2,2.9v0.5c0,2.2,0.2,4.5,0.7,6.6c3.4-3.4,8-5.4,12.9-5.4
	c0.4,0,0.8,0,1.2,0c0.1-0.5,0.2-1.1,0.3-1.6L2.4,32.2L2.4,32.2z M51.3,37.1c-1.3-7.8-8.1-13.7-16-13.7s-14.8,5.8-16.1,13.7
	c5,1.1,9.1,4.4,13.9,8.3l0.1,0.1c0.6,0.5,1.3,1,1.9,1.6c0.7-0.5,1.3-1,1.9-1.6l0.1-0.1C42,41.4,46.2,38.1,51.3,37.1L51.3,37.1z
	 M66.9,45.1c-0.2,0.7-0.4,1.3-0.7,2c-1.3,3.5-3.2,6.7-5.6,9.6l-3.3,4l-3.3-1.5c-7.3-3.4-12.8-7.3-17.2-10.7c0.5-0.4,0.9-0.8,1.4-1.1
	l0.1-0.1c6-4.8,10.1-8.2,16-8.2C59.3,39,63.9,41.3,66.9,45.1L66.9,45.1z M53.7,65.2c-2.4,0.8-5,0.8-7.9,0c-1.9-0.5-3.7-1.4-5.5-2.2
	c-1.6-0.7-3.1-1.4-4.7-1.9c-3.9-1.3-7.6-1.1-10.9,0.5c-1.2,0.6-2.5,1.4-3.8,2.2l0,0c-1.1,0.7-2.2,1.4-3.3,2l18,21.3L53.7,65.2
	L53.7,65.2z M55,62c-2.4,1.6-5.2,1.9-8.5,1c-1.7-0.5-3.5-1.3-5.2-2.1l-0.1,0c-1.6-0.7-3.2-1.5-4.9-2c-4.4-1.4-8.7-1.2-12.6,0.6
	c-1.4,0.7-2.7,1.5-4,2.3l0,0c-1.2,0.8-2.4,1.6-3.6,2.1l-6-7.1C7.2,53.6,5,49.7,3.7,45.5c-0.1-0.2-0.1-0.5-0.2-0.7
	C6.6,41.1,11,39,15.8,39c5.8,0,10,3.3,16,8.2h0c5.2,4.2,11.6,9.4,21.4,14L55,62L55,62z"/>
<path class="st1" d="M139.3,24.7l0,11.7c0,4.1-1.5,5.8-2.3,6.1h-0.6c-0.8-0.2-2.3-1.9-2.3-6.1v-8.5c0-1.1-0.1-2.6-1.3-2.6
	c-0.8,0-1.9,0.8-3.2,1.8c-1.5,1.1-3.2,2.3-4.8,2.6l0,0.5c1.9,0.6,2.8,1.8,2.8,4.8v1.5c0,4.2-1.5,5.8-2.3,6.1v0.4h22.8v-0.4
	c-0.8-0.2-2.3-1.9-2.3-6.1V10.3c0,0,0-0.1,0-0.1c0-1.1,0-2.4-1.3-2.4c-0.8,0-1.9,0.8-3.2,1.8c-1.5,1.1-3.2,2.3-4.8,2.6v0.4
	C138.4,13.2,139.3,21.8,139.3,24.7L139.3,24.7z"/>
<path class="st1" d="M96.2,26.1c0.9,1.1,1.4,2.5,1.4,4c0,1.5-0.3,2.9-1,4.2l3.4,8.6h4.2l4.8-11.8l4.3,11.8h4l5.5-14.7
	c1.1-2.7,2.8-6.3,5.2-6.3c1.1,0,1.6,0.3,2.2,0.5c0.5,0.3,1,0.5,1.9,0.5c2.2,0,3.1-1.6,3.1-3.7c0-2.2-1.4-3.5-4-3.5
	c-3.7,0-6.9,3.7-8.5,7.8l-4.4,12l-4.1-13.6c-0.5-1.5,0.3-3.4,2-3.7v-0.4h-13.3v0.4c0.5,0.3,2.2,1.8,3.6,5.7l1.1,3
	c0,0.1,0.1,0.2,0.1,0.3c0.3,0.9,0.5,1.5,0.1,2.7l-2.6,6.3l-4.4-12.3c-1.4-3.9-0.6-5.4,0.1-5.7v-0.4h-7.1c-8.3,0-15.3,4-15.3,10.3
	s4.4,9.6,10.1,9.6c4.8,0,8.5-2.7,8.5-7.6c0-3.1-2.6-5.5-5.9-5.5c-0.6,0-1.2,0.1-1.8,0.3c-0.6,0.2-1.1,0.6-1.5,1
	c-0.4,0.4-0.8,0.9-1,1.5c-0.2,0.6-0.3,1.2-0.3,1.8c0,0.9,0.3,1.7,0.9,2.3c0.6,0.6,1.4,0.9,2.2,0.9c0.8,0,1.7-0.3,2.2-0.9
	c0.6-0.6,0.9-1.4,0.9-2.3c0-0.3,0-0.7-0.1-1c-0.1-0.3,0-0.4,0.2-0.4c1.3,0.3,2.1,1.6,2.1,2.9c0,0.6-0.1,1.3-0.4,1.9
	c-0.3,0.6-0.6,1.1-1.1,1.6c-0.5,0.5-1,0.8-1.6,1c-0.6,0.2-1.2,0.3-1.9,0.3c-3.3,0-5-3-5-6.7c0-1.9,0.5-3.7,1.5-5.2
	c1-1.6,2.3-2.9,4-3.7c0.7,1,1.3,2.1,1.8,3.3l0.3,0.7C94,24.2,95.3,25,96.2,26.1L96.2,26.1z"/>
<path class="st0" d="M160.4,42.9c-0.1-0.8-0.6-0.7-1.5-0.1c-0.9,0.5-1.9,0.8-2.9,0.8c-5.5,0-8-4.8-8-10.3c0-5.5,4.2-8.1,7.6-8.1
	c0.9,0,1.8,0.2,2.7,0.6c0.8,0.4,1.6,1,2.2,1.7l0-2.8c0-2.9-0.9-4.1-2.8-4.8v-0.4c1.6-0.3,3.3-1.5,4.8-2.6c1.3-0.9,2.4-1.8,3.2-1.8
	c1.3,0,1.3,1.4,1.3,2.4c0,20.7,0,14,0.1,29.6c1.1-1.4,2.5-2.3,4.4-2.3c6.4,0,4.9,10.4-5.1,7.7c0,0.1-1.6,3.2-7.5,19.4h-4.5
	l-3.4-10.7c-1.3-3.9-3.2-5.5-3.8-5.7v-0.4h11.4v0.4c-0.8,0.3-1.6,1.8-0.4,5.8l1.3,4.2l5-13.7C161.8,50.3,160.5,47,160.4,42.9
	L160.4,42.9z M167.4,50.8c1.6,1.4,5.6,0.3,5.1-1.3C172.3,48.3,169.8,47.7,167.4,50.8z M157.7,42.1c2,0,2.7-2.6,2.7-7.9v-0.6
	c0-5.3-1.3-6.3-2.7-6.3c-1.8,0-2.6,2.1-2.6,7.4C155.1,40,155.9,42.1,157.7,42.1z"/>
<path class="st1" d="M96.6,62.8c-4.8,0-7.4,3.1-7.4,6.6c0,5,3.8,7.8,11.4,7.8c9.5,0,15.5-6.4,15.5-16.6c0-7.2-4.1-13.3-12.3-13.3
	H89.6v0.4c0.8,0.2,2.3,1.9,2.3,6.1v9.5c1.4-0.8,3.1-1.3,4.8-1.2c0.7,0,1.5,0.1,2.2,0.2V51.6c0-2.4,0.8-2.9,1.6-2.9h1.3
	c6.4,0,7.2,5.5,7.2,12c0,8.1-2.2,14.9-8.4,14.9c-4.6,0-6.9-2.7-6.9-6.3c0-3,1.4-5,3.1-5c1.4,0,2.2,0.8,2.2,1.6c0,0.6-0.3,1-0.7,1.5
	c-0.4,0.5-0.9,1.1-0.9,2c0,0.4,0.1,0.8,0.2,1.1c0.1,0.4,0.4,0.7,0.6,1c0.3,0.3,0.6,0.5,1,0.6c0.4,0.1,0.7,0.2,1.1,0.2
	c2.1,0,3.3-2.2,3.3-4.2C103.6,65.1,101,62.8,96.6,62.8L96.6,62.8z"/>
<path class="st1" d="M119.8,66v-1.5c0-2.9-0.9-4.1-2.8-4.8v-0.4c1.6-0.3,3.3-1.5,4.8-2.6c1.3-0.9,2.4-1.8,3.2-1.8
	c1.1,0,1.3,1.4,1.3,2.4c1-1.6,2.4-3.4,5.5-3.4c0.6,0,1.2,0,1.7,0.2c0.5,0.2,1,0.5,1.5,0.9c0.4,0.4,0.8,0.9,1,1.4
	c0.2,0.5,0.3,1.1,0.3,1.7c0,0.6-0.1,1.2-0.3,1.7c-0.2,0.5-0.6,1-1,1.4c-0.4,0.4-0.9,0.7-1.5,0.9c-0.5,0.2-1.1,0.3-1.7,0.2
	c-2.1,0-3.5-1.9-3.5-3.8c0-0.4,0.1-0.9,0.2-1.3c0.2-0.6,0.2-0.9-0.4-0.4c-0.9,0.8-1.7,2.1-1.7,4v5c0,4.2,1.5,5.8,2.3,6.1v0.4h-11.1
	V72C118.3,71.8,119.8,70.1,119.8,66L119.8,66z"/>
<path class="st1" d="M139.2,64.5V66c0,4.1-1.5,5.8-2.3,6.1v0.4H148V72c-0.8-0.2-2.3-1.9-2.3-6.1v-8.5c0-1.1-0.1-2.6-1.3-2.6
	c-0.8,0-1.9,0.8-3.2,1.8c-1.5,1.1-3.2,2.3-4.8,2.6v0.4C138.3,60.3,139.2,61.5,139.2,64.5L139.2,64.5z"/>
<path class="st1" d="M144.9,48.2c-0.7-0.7-1.5-1-2.5-1c-0.5,0-0.9,0.1-1.3,0.3c-0.4,0.2-0.8,0.4-1.1,0.8c-0.3,0.3-0.6,0.7-0.8,1.1
	c-0.2,0.4-0.3,0.9-0.3,1.4c0,0.5,0.1,0.9,0.3,1.3c0.2,0.4,0.4,0.8,0.8,1.1s0.7,0.6,1.1,0.8c0.4,0.2,0.9,0.3,1.3,0.3
	c0.5,0,0.9-0.1,1.3-0.3c0.4-0.2,0.8-0.4,1.1-0.8c0.3-0.3,0.6-0.7,0.8-1.2c0.2-0.4,0.3-0.9,0.2-1.4C145.9,49.8,145.5,48.9,144.9,48.2
	L144.9,48.2z"/>
<path class="st1" d="M182.9,67.3c0-0.6,0.1-1.2,0.3-1.8c0.2-0.6,0.6-1.1,1-1.5c0.4-0.4,0.9-0.8,1.5-1c0.6-0.2,1.2-0.3,1.8-0.3
	c0.4,0,0.8,0.1,1.2,0.2c0.4,0.2,0.7,0.4,1,0.7c0.3,0.3,0.5,0.7,0.7,1c0.2,0.4,0.2,0.8,0.2,1.2c0,0.4-0.1,0.8-0.2,1.2
	c-0.2,0.4-0.4,0.7-0.7,1c-0.3,0.3-0.6,0.5-1,0.7c-0.4,0.2-0.8,0.2-1.2,0.2c-0.3,0-0.6,0-1-0.1c-0.2-0.1-0.4,0-0.4,0.3
	c0.3,1.3,2.7,2.5,5,2.5c2,0,3.1-0.6,3.1-2c0-1.2-1.2-2-2.8-2.8c0.1-0.3,0.1-0.7,0.1-1.1c0-0.5-0.1-1.1-0.3-1.5
	c-0.2-0.5-0.5-0.9-0.9-1.3c-0.4-0.4-0.8-0.7-1.3-0.9c-0.5-0.2-1-0.3-1.5-0.3c-1,0-2,0.3-2.9,0.8c-0.6-0.8-1-1.8-1-2.9
	c0-2.8,4.2-5,8.4-5c4,0,6.8,1.5,6.8,3.1c0,0.5-0.2,0.9-0.5,1.3c-0.3,0.4-0.7,0.6-1.2,0.7l-0.4-0.2c0-1.7-1.6-3.5-3.7-3.5
	c-1.2,0-2.7,0.6-2.7,1.7c0,1,1.6,1.9,3.4,2.9c2.7,1.5,6.1,3.3,6.1,6.6c0,3.8-4.2,5.7-8.6,5.7C186.5,73.2,182.9,71,182.9,67.3
	L182.9,67.3z"/>
<path class="st0" d="M164.7,63.7c0-1.2,0.2-2.4,0.7-3.5c0.5-1.1,1.1-2.1,2-3c0.8-0.9,1.9-1.5,3-2c1.1-0.5,2.3-0.7,3.5-0.7
	c5,0,7.5,3,8.2,7.6c0.2,1.2-0.3,2.2-2.7,2.2c-5.8,0.1-9.7,1.2-6.9,5c2.2,2.8,4.9,2.1,6-1.3h3.4c-0.6,1.4-1.6,2.7-2.9,3.5
	c-1.3,0.9-2.8,1.3-4.4,1.3C168.7,72.8,164.7,68.7,164.7,63.7L164.7,63.7z M176.1,60.1c0-3.1-1-4.3-2.5-4.3c-1.7,0-2.3,2.8-2.3,7.8
	v0.3c1.1-0.5,2-0.8,2.7-1C175.5,62.5,176.1,62.3,176.1,60.1z"/>
</svg>
