<svg width="1381" height="345" viewBox="0 0 1381 345" fill="none" xmlns="http://www.w3.org/2000/svg">
<mask id="mask0_214_1260" style="mask-type:alpha" maskUnits="userSpaceOnUse" x="0" y="0" width="1381" height="345">
<rect x="0.48291" y="0.322754" width="1380.03" height="344.302" rx="60" fill="#171519"/>
</mask>
<g mask="url(#mask0_214_1260)">
<rect x="-100.188" y="-56.9053" width="1535.24" height="486.757" rx="60" transform="rotate(-0.742465 -100.188 -56.9053)" fill="#171519"/>
<path fill-rule="evenodd" clip-rule="evenodd" d="M843.705 -59.1597C936.905 -59.9847 1031.55 -17.2875 1060.34 71.3589C1089.11 159.972 1036.54 248.664 961.686 304.133C884.134 361.6 780.585 392.827 701.839 337.008C620.828 279.585 605.089 168.578 638.566 75.0928C669.025 -9.96704 753.359 -58.3598 843.705 -59.1597Z" fill="#583F72"/>
<path fill-rule="evenodd" clip-rule="evenodd" d="M236.179 -157.76C309.992 -167.888 388.439 -190.121 451.035 -149.714C524.214 -102.476 587.671 -21.7394 581.488 65.1422C575.462 149.802 481.329 190.284 422.484 251.447C361.467 314.868 323.129 410.456 236.179 424.053C141.836 438.806 48.4864 387.876 -19.1941 320.515C-87.033 252.997 -145.069 158.604 -124.435 65.1422C-105.3 -21.537 -2.33616 -51.1947 73.1701 -97.8665C124.359 -129.507 176.559 -149.58 236.179 -157.76Z" fill="#264743"/>
<path fill-rule="evenodd" clip-rule="evenodd" d="M1263.83 -42.0865C1340.33 -46.5223 1393.87 25.6654 1448.86 79.0445C1505.14 133.676 1579.63 185.647 1579.23 264.081C1578.83 342.362 1499.32 389.018 1446.97 447.222C1389.45 511.176 1348.82 601.536 1263.83 614.772C1171.41 629.165 1074.6 585.269 1013.12 514.789C954.639 447.754 939.874 351.195 957.896 264.081C973.128 190.457 1045.93 152.508 1099.07 99.3246C1152.25 46.1029 1188.71 -37.7318 1263.83 -42.0865Z" fill="#EFB965"/>
</g>
</svg>
