<?xml version="1.0" encoding="utf-8"?>
<!-- Generator: Adobe Illustrator 26.4.1, SVG Export Plug-In . SVG Version: 6.00 Build 0)  -->
<svg version="1.1" id="Layer_1" xmlns="http://www.w3.org/2000/svg" xmlns:xlink="http://www.w3.org/1999/xlink" x="0px" y="0px"
	 viewBox="0 0 201 90" style="enable-background:new 0 0 201 90;" xml:space="preserve">
<style type="text/css">
	.st0{fill-rule:evenodd;clip-rule:evenodd;fill:#48305A;}
	.st1{fill:#48305A;}
</style>
<path class="st0" d="M70.6,35.7L70.6,35.7l0-0.9h0C70.3,15.6,54.6,0,35.3,0C16,0,0,15,0,35.7h0c0,3.6,0.7,7.1,1.7,10.3
	c1.3,4.2,3.6,8.2,6.5,11.5l27.4,31.8l27.1-32c2-2.3,3.7-4.9,4.9-7.7C69.5,45.3,70.5,40.6,70.6,35.7L70.6,35.7z M68.4,35.3
	c0-1.1-0.1-2.2-0.2-3.3l-15,3.1c0.1,0.5,0.2,1,0.3,1.5c0.3,0,0.6,0,0.8,0c5.1,0,9.8,2,13.3,5.6C68.1,39.9,68.4,37.6,68.4,35.3
	L68.4,35.3z M67.9,29.8c-0.7-4.3-2.3-8.3-4.5-11.8L49.9,28.1c1.1,1.4,2,3,2.7,4.8L67.9,29.8L67.9,29.8z M48.4,26.5
	c-1.3-1.4-2.9-2.5-4.6-3.4L52,6.8c4,2.4,7.5,5.5,10.2,9.3L48.4,26.5L48.4,26.5z M41.8,22.2c-1.7-0.6-3.5-1-5.4-1.1V2.2
	c4.9,0.2,9.5,1.4,13.7,3.5L41.8,22.2L41.8,22.2z M20.6,5.7l8.3,16.5c1.7-0.6,3.4-1,5.3-1.1V2.2C29.3,2.4,24.7,3.6,20.6,5.7L20.6,5.7
	z M8.4,16c2.7-3.8,6.2-6.9,10.2-9.3l8.2,16.4c-1.7,0.9-3.3,2-4.6,3.3L8.4,16L8.4,16z M2.7,29.7c0.7-4.3,2.3-8.3,4.5-11.9l13.6,10.2
	c-1.1,1.4-2.1,3.1-2.7,4.8L2.7,29.7L2.7,29.7z M2.4,31.9c-0.1,1-0.2,1.9-0.2,2.9v0.5c0,2.2,0.2,4.4,0.7,6.6c3.4-3.4,8-5.3,12.9-5.3
	c0.4,0,0.8,0,1.2,0c0.1-0.5,0.2-1.1,0.3-1.6L2.4,31.9L2.4,31.9z M51.3,36.8C50,29,43.3,23.3,35.3,23.3s-14.8,5.8-16.1,13.6
	c5,1.1,9.1,4.3,13.9,8.2l0.1,0.1c0.6,0.5,1.3,1,1.9,1.5c0.7-0.5,1.3-1,1.9-1.5l0.1-0.1C42,41.2,46.2,37.8,51.3,36.8L51.3,36.8z
	 M67,44.8c-0.2,0.7-0.4,1.3-0.7,2c-1.3,3.5-3.2,6.7-5.6,9.5l-3.3,4l-3.3-1.5c-7.3-3.4-12.8-7.2-17.2-10.6c0.5-0.4,0.9-0.8,1.4-1.1
	l0.1-0.1c6-4.8,10.1-8.1,16-8.1C59.3,38.8,63.9,41,67,44.8L67,44.8z M53.7,64.7c-2.4,0.8-5,0.8-7.9,0c-1.9-0.5-3.7-1.4-5.5-2.2
	c-1.6-0.7-3.1-1.4-4.7-1.9c-3.9-1.2-7.6-1.1-10.9,0.5c-1.2,0.6-2.5,1.4-3.8,2.2l0,0c-1.1,0.7-2.2,1.4-3.3,2l18,21.2L53.7,64.7
	L53.7,64.7z M55,61.6c-2.4,1.6-5.2,1.9-8.5,1c-1.7-0.5-3.5-1.3-5.2-2.1l-0.1,0c-1.6-0.7-3.2-1.5-4.9-2c-4.4-1.4-8.7-1.2-12.6,0.6
	c-1.4,0.6-2.8,1.5-4,2.3l0,0c-1.2,0.8-2.4,1.5-3.6,2.1l-6-7C7.2,53.2,5,49.3,3.7,45.1c-0.1-0.2-0.1-0.5-0.2-0.7
	c3.1-3.6,7.5-5.7,12.3-5.7c5.8,0,10,3.3,16,8.1h0c5.2,4.1,11.6,9.3,21.4,13.9L55,61.6L55,61.6z"/>
<path class="st1" d="M139.4,24.5l0,11.6c0,4.1-1.5,5.8-2.3,6h-0.6c-0.8-0.2-2.3-1.9-2.3-6v-8.5c0-1.1-0.1-2.6-1.3-2.6
	c-0.8,0-1.9,0.8-3.2,1.8c-1.5,1.1-3.2,2.3-4.8,2.6l0,0.5c1.9,0.6,2.8,1.8,2.8,4.7v1.5c0,4.1-1.5,5.8-2.3,6v0.4h22.8v-0.4
	c-0.8-0.2-2.3-1.9-2.3-6V10.2c0,0,0-0.1,0-0.1c0-1.1,0-2.4-1.3-2.4c-0.8,0-1.9,0.8-3.2,1.7c-1.5,1.1-3.2,2.3-4.8,2.6v0.4
	C138.5,13.1,139.4,21.6,139.4,24.5L139.4,24.5z"/>
<path class="st1" d="M96.2,25.9c0.9,1.1,1.4,2.5,1.4,3.9c0,1.4-0.3,2.9-1,4.1l3.4,8.5h4.2l4.8-11.7l4.3,11.7h4l5.5-14.6
	c1.1-2.7,2.8-6.3,5.2-6.3c1.1,0,1.6,0.3,2.2,0.5c0.5,0.3,1,0.5,1.9,0.5c2.2,0,3.1-1.6,3.1-3.6c0-2.2-1.4-3.4-4-3.4
	c-3.7,0-6.9,3.7-8.5,7.7l-4.4,11.9l-4.1-13.5c-0.5-1.5,0.3-3.4,2-3.6v-0.4h-13.3V18c0.5,0.3,2.2,1.7,3.6,5.6l1.1,3
	c0,0.1,0.1,0.2,0.1,0.3c0.3,0.9,0.5,1.4,0.1,2.7l-2.6,6.3l-4.4-12.2c-1.4-3.9-0.6-5.4,0.1-5.6v-0.4h-7.1c-8.3,0-15.4,3.9-15.4,10.2
	s4.4,9.5,10.1,9.5c4.8,0,8.5-2.7,8.5-7.5c0-3.1-2.6-5.5-5.9-5.5c-0.6,0-1.2,0.1-1.8,0.3c-0.6,0.2-1.1,0.6-1.5,1
	c-0.4,0.4-0.8,0.9-1,1.5c-0.2,0.6-0.3,1.2-0.3,1.8c0,0.8,0.3,1.7,0.9,2.2c0.6,0.6,1.4,0.9,2.2,0.9c0.8,0,1.7-0.3,2.2-0.9
	c0.6-0.6,0.9-1.4,0.9-2.2c0-0.3,0-0.6-0.1-1c-0.1-0.2,0-0.4,0.2-0.4c1.3,0.3,2.1,1.5,2.1,2.9c0,0.6-0.1,1.3-0.4,1.9
	c-0.3,0.6-0.6,1.1-1.1,1.6c-0.5,0.4-1,0.8-1.6,1c-0.6,0.2-1.2,0.3-1.9,0.3c-3.3,0-5-3-5-6.7c0-1.8,0.5-3.6,1.5-5.2
	c1-1.6,2.3-2.8,4-3.7c0.7,1,1.3,2.1,1.8,3.2l0.3,0.7C94.1,24,95.3,24.8,96.2,25.9L96.2,25.9z"/>
<path class="st0" d="M160.5,42.6c-0.1-0.8-0.6-0.7-1.5-0.1c-0.9,0.5-1.9,0.8-2.9,0.8c-5.5,0-8-4.8-8-10.2c0-5.4,4.2-8,7.6-8
	c0.9,0,1.8,0.2,2.7,0.6c0.8,0.4,1.6,1,2.2,1.7l0-2.8c0-2.9-0.9-4.1-2.8-4.7v-0.4c1.6-0.3,3.3-1.5,4.8-2.6c1.3-0.9,2.5-1.7,3.2-1.7
	c1.3,0,1.3,1.4,1.3,2.4c0,20.5,0,13.9,0.1,29.4c1.1-1.4,2.5-2.3,4.4-2.3c6.4,0,4.9,10.3-5.1,7.7c0,0.1-1.6,3.2-7.5,19.3h-4.5
	L151,60.9c-1.3-3.9-3.2-5.4-3.8-5.7v-0.4h11.4v0.4c-0.8,0.2-1.6,1.8-0.4,5.7l1.3,4.2l5-13.6C161.9,49.9,160.6,46.7,160.5,42.6
	L160.5,42.6z M167.5,50.4c1.6,1.4,5.6,0.3,5.1-1.3C172.4,48,169.9,47.3,167.5,50.4z M157.8,41.8c2,0,2.7-2.6,2.7-7.9v-0.6
	c0-5.2-1.3-6.3-2.7-6.3c-1.8,0-2.6,2.1-2.6,7.4C155.2,39.7,156,41.8,157.8,41.8z"/>
<path class="st1" d="M96.7,62.4c-4.8,0-7.4,3.1-7.4,6.5c0,5,3.8,7.7,11.4,7.8c9.5,0,15.5-6.4,15.5-16.4c0-7.2-4.1-13.2-12.3-13.2
	H89.6v0.4c0.8,0.2,2.3,1.9,2.3,6v9.4c1.5-0.8,3.1-1.2,4.8-1.2c0.7,0,1.5,0.1,2.2,0.2V51.3c0-2.4,0.8-2.8,1.6-2.8h1.3
	c6.4,0,7.2,5.5,7.2,11.9c0,8-2.2,14.8-8.4,14.8c-4.6,0-6.9-2.7-6.9-6.2c0-3,1.4-5,3.1-5c1.4,0,2.2,0.8,2.2,1.6c0,0.6-0.3,1-0.7,1.5
	c-0.4,0.5-0.9,1.1-0.9,2c0,0.4,0.1,0.8,0.2,1.1c0.1,0.4,0.4,0.7,0.6,0.9c0.3,0.3,0.6,0.5,1,0.6c0.4,0.1,0.7,0.2,1.1,0.2
	c2.1,0,3.3-2.2,3.3-4.2C103.7,64.6,101.1,62.4,96.7,62.4L96.7,62.4z"/>
<path class="st1" d="M119.9,65.5V64c0-2.9-0.9-4.1-2.8-4.7v-0.4c1.6-0.3,3.3-1.5,4.8-2.6c1.3-0.9,2.4-1.8,3.2-1.8
	c1.1,0,1.3,1.4,1.3,2.4c1-1.6,2.4-3.3,5.5-3.3c0.6,0,1.2,0,1.7,0.2c0.5,0.2,1,0.5,1.5,0.9c0.4,0.4,0.8,0.9,1,1.4
	c0.2,0.5,0.3,1.1,0.3,1.7c0,0.6-0.1,1.2-0.3,1.7c-0.2,0.5-0.6,1-1,1.4c-0.4,0.4-0.9,0.7-1.5,0.9c-0.5,0.2-1.1,0.3-1.7,0.2
	c-2.1,0-3.5-1.9-3.5-3.8c0-0.4,0.1-0.8,0.2-1.2c0.2-0.6,0.2-0.9-0.4-0.4c-0.9,0.7-1.7,2.1-1.7,4v4.9c0,4.1,1.5,5.8,2.3,6v0.4h-11.1
	v-0.4C118.4,71.3,119.9,69.6,119.9,65.5L119.9,65.5z"/>
<path class="st1" d="M139.3,64v1.5c0,4.1-1.5,5.8-2.3,6v0.4H148v-0.4c-0.8-0.2-2.3-1.9-2.3-6v-8.4c0-1.1-0.1-2.6-1.3-2.6
	c-0.8,0-1.9,0.8-3.2,1.8c-1.5,1.1-3.2,2.3-4.8,2.6v0.4C138.3,59.9,139.3,61.1,139.3,64L139.3,64z"/>
<path class="st1" d="M145,47.9c-0.7-0.7-1.5-1-2.5-1c-0.5,0-0.9,0.1-1.3,0.3c-0.4,0.2-0.8,0.4-1.1,0.8c-0.3,0.3-0.6,0.7-0.8,1.1
	c-0.2,0.4-0.3,0.9-0.3,1.3c0,0.5,0.1,0.9,0.3,1.3c0.2,0.4,0.4,0.8,0.8,1.1c0.3,0.3,0.7,0.6,1.1,0.8s0.9,0.3,1.3,0.3
	c0.5,0,0.9-0.1,1.3-0.3c0.4-0.2,0.8-0.4,1.1-0.8c0.3-0.3,0.6-0.7,0.8-1.1c0.2-0.4,0.3-0.9,0.2-1.3C146,49.4,145.6,48.5,145,47.9
	L145,47.9z"/>
<path class="st1" d="M183,66.8c0-0.6,0.1-1.2,0.3-1.8c0.2-0.6,0.6-1.1,1-1.5c0.4-0.4,0.9-0.7,1.5-1c0.6-0.2,1.2-0.3,1.8-0.3
	c0.4,0,0.8,0.1,1.2,0.2c0.4,0.2,0.7,0.4,1,0.7c0.3,0.3,0.5,0.6,0.7,1c0.2,0.4,0.2,0.8,0.2,1.2c0,0.4-0.1,0.8-0.2,1.2
	c-0.2,0.4-0.4,0.7-0.7,1c-0.3,0.3-0.6,0.5-1,0.7c-0.4,0.2-0.8,0.2-1.2,0.2c-0.3,0-0.7,0-1-0.1c-0.2-0.1-0.4,0-0.4,0.2
	c0.3,1.3,2.7,2.5,5,2.5c2,0,3.1-0.6,3.1-2c0-1.2-1.2-2-2.8-2.8c0.1-0.3,0.1-0.7,0.1-1.1c0-0.5-0.1-1-0.3-1.5
	c-0.2-0.5-0.5-0.9-0.9-1.3c-0.4-0.4-0.8-0.7-1.3-0.8c-0.5-0.2-1-0.3-1.5-0.3c-1,0-2,0.3-2.9,0.8c-0.6-0.8-1-1.8-1-2.8
	c0-2.8,4.2-5,8.4-5c4,0,6.8,1.5,6.8,3.1c0,0.5-0.2,0.9-0.5,1.3c-0.3,0.4-0.7,0.6-1.2,0.7l-0.4-0.2c0-1.7-1.6-3.4-3.7-3.4
	c-1.2,0-2.7,0.6-2.7,1.7c0,1,1.6,1.9,3.4,2.8c2.7,1.5,6.1,3.3,6.1,6.5c0,3.7-4.2,5.7-8.6,5.7C186.6,72.7,183,70.5,183,66.8L183,66.8
	z"/>
<path class="st0" d="M164.8,63.2c0-1.2,0.2-2.4,0.7-3.5c0.5-1.1,1.1-2.1,2-3c0.8-0.8,1.9-1.5,3-2c1.1-0.5,2.3-0.7,3.5-0.7
	c5,0,7.5,3,8.2,7.5c0.2,1.2-0.3,2.2-2.7,2.2c-5.8,0.1-9.7,1.2-6.9,5c2.2,2.8,4.9,2.1,6-1.3h3.4c-0.6,1.4-1.6,2.6-2.9,3.5
	s-2.8,1.3-4.4,1.3C168.8,72.3,164.8,68.3,164.8,63.2L164.8,63.2z M176.2,59.7c0-3.1-1-4.2-2.5-4.2c-1.7,0-2.3,2.8-2.3,7.7v0.3
	c1.1-0.5,2-0.8,2.7-1C175.6,62,176.2,61.9,176.2,59.7z"/>
</svg>
