<svg width="201" height="90" viewBox="0 0 201 90" fill="none" xmlns="http://www.w3.org/2000/svg">
<path fill-rule="evenodd" clip-rule="evenodd" d="M70.5638 35.7473H70.5661V34.8188H70.5638C70.3131 15.5779 54.5843 0 35.2831 0C15.9818 0 0 15.0324 0 35.7473H0.00696376C0.0510676 39.3337 0.663879 42.8364 1.67362 46.0467C3.01067 50.2946 5.24836 54.2036 8.15689 57.5741L35.5732 89.366L62.6251 57.3605C64.6028 55.0207 66.2764 52.4348 67.5253 49.64C69.4635 45.2993 70.4988 40.5987 70.5615 35.7496L70.5638 35.7473ZM68.354 35.2854C68.354 34.1619 68.2983 33.05 68.1868 31.9567L53.2333 35.0347C53.3587 35.5384 53.4631 36.0537 53.5467 36.5737C53.8206 36.5598 54.0991 36.5528 54.38 36.5528C59.4334 36.5528 64.178 38.5932 67.6321 42.1981C68.1102 39.9488 68.3516 37.6345 68.354 35.2854V35.2854ZM67.892 29.7585C67.1701 25.4827 65.6242 21.4832 63.4236 17.927L49.8977 28.1429C51.0096 29.5728 51.9148 31.1768 52.5718 32.9107L67.892 29.7585V29.7585ZM48.433 26.4762C47.0866 25.1206 45.5314 23.9762 43.8137 23.0942L52.0193 6.76878C56.0281 9.13181 59.4961 12.3119 62.1934 16.084L48.4306 26.4762H48.433ZM41.7849 22.2028C40.0927 21.5784 38.2798 21.193 36.3857 21.0863V2.23305C41.2928 2.39321 45.9307 3.62812 50.0764 5.71029L41.7849 22.2028V22.2028ZM20.5779 5.66618L28.8787 22.1842C30.5454 21.5737 32.3235 21.1954 34.1735 21.0863V2.23305C29.3035 2.39321 24.6981 3.61187 20.5779 5.66618V5.66618ZM8.4424 15.9865C11.149 12.2307 14.6216 9.06682 18.6304 6.72003L26.8476 23.0709C25.1415 23.9414 23.5863 25.0695 22.2376 26.4089L8.4424 15.9865V15.9865ZM2.67873 29.7399C3.40992 25.4293 4.97677 21.3996 7.20749 17.8249L20.7613 28.064C19.6192 29.5101 18.6884 31.135 18.0153 32.8968L2.68105 29.7399H2.67873ZM2.38161 31.9381C2.28644 32.8898 2.23073 33.8532 2.2168 34.8281V35.2923C2.2168 37.5254 2.43732 39.7283 2.86907 41.8731C6.29292 38.4725 10.9029 36.5528 15.8008 36.5528C16.2163 36.5528 16.6225 36.569 17.0241 36.5969C17.11 36.063 17.2167 35.5361 17.3467 35.0184L2.38161 31.9381V31.9381ZM51.3461 36.8337C50.0416 29.0459 43.2682 23.2659 35.2877 23.2659C27.3072 23.2659 20.4967 29.0691 19.2177 36.9079C24.1991 37.9618 28.2845 41.2464 33.0848 45.1043L33.1591 45.1646C33.7835 45.666 34.4265 46.1814 35.0904 46.7106C35.752 46.1837 36.3926 45.6684 37.0217 45.1646L37.0867 45.1136C42.0124 41.1535 46.1883 37.797 51.3461 36.8337V36.8337ZM66.9705 44.7956C66.7732 45.4571 66.5527 46.114 66.3136 46.7617C65.023 50.2459 63.094 53.4585 60.7147 56.3113L57.4139 60.2667L54.0968 58.7509C46.7501 55.3364 41.3183 51.5458 36.8801 48.1126C37.3606 47.7296 37.8295 47.3536 38.2891 46.9845L38.4121 46.8847C44.3824 42.0913 48.5467 38.7673 54.3823 38.7673C59.3011 38.7673 63.8879 40.9655 66.9728 44.7956H66.9705ZM53.7185 64.698C51.3508 65.5313 48.7417 65.522 45.8564 64.691C43.9599 64.1455 42.1075 63.3099 40.3527 62.5137C38.7882 61.8104 37.2074 61.0977 35.6405 60.5987C31.7199 59.3498 28.0431 59.5309 24.6912 61.1001C23.447 61.6827 22.1657 62.4928 20.9029 63.296L20.8611 63.3238C19.7933 63.9993 18.6768 64.7073 17.5371 65.2969L35.5663 86.4505L53.7161 64.698H53.7185ZM55.0021 61.5945C52.5648 63.1915 49.7793 63.5142 46.4692 62.5624C44.7515 62.0657 43.0128 61.2834 41.2974 60.5105L41.2348 60.4826C39.6586 59.7746 37.9989 59.0272 36.3137 58.4886C31.8755 57.0796 27.6438 57.2746 23.7557 59.0945C22.3722 59.7421 21.005 60.6056 19.7167 61.425L19.6935 61.4413C18.4749 62.2119 17.2539 62.9849 16.0584 63.5583L10.0626 56.5249C7.21446 53.1823 5.00694 49.3267 3.7024 45.1345C3.63276 44.907 3.56312 44.6795 3.49813 44.4497C6.57611 40.8309 11.0329 38.7673 15.8031 38.7673C21.6387 38.7673 25.8007 42.0867 31.7733 46.8847H31.7756C36.9335 51.0305 43.3842 56.2115 53.1706 60.7565L55.0021 61.5945V61.5945Z" fill="#EFB965"/>
<path d="M139.396 24.5264L139.361 36.1141C139.361 40.2343 137.834 41.8917 137.068 42.1215H136.48C135.698 41.8917 134.171 40.2389 134.171 36.1141V27.6322C134.171 26.5668 134.064 25.0742 132.892 25.0742C132.114 25.0742 130.967 25.8959 129.668 26.8314C128.173 27.9038 126.471 29.1248 124.893 29.4103L124.874 29.8908C126.759 30.5291 127.683 31.7037 127.683 34.6169V36.1141C127.683 40.2389 126.153 41.8731 125.371 42.1215V42.5138H148.177V42.1215C147.395 41.8917 145.868 40.2389 145.868 36.1141V10.2251C145.868 10.188 145.868 10.1485 145.868 10.1091C145.868 9.05521 145.872 7.70192 144.589 7.70192C143.811 7.70192 142.662 8.519 141.36 9.44518C139.865 10.5083 138.166 11.7177 136.59 12.0032V12.4466C138.474 13.0872 139.398 21.6132 139.398 24.5264H139.396Z" fill="#EFB965"/>
<path d="M96.2485 25.9098C97.1654 27.0217 97.6784 28.4122 97.6969 29.8536C97.7202 31.2951 97.365 32.7158 96.6663 33.9785L100.044 42.5091H104.203L108.985 30.7822L113.286 42.5091H117.286L122.743 27.8806C123.811 25.181 125.517 21.59 127.968 21.59C129.045 21.59 129.607 21.8616 130.153 22.1262C130.67 22.3769 131.174 22.6206 132.091 22.6206C134.243 22.6206 135.201 21.0213 135.201 18.9948C135.201 16.792 133.762 15.5478 131.202 15.5478C127.469 15.5478 124.34 19.2432 122.669 23.2961L118.261 35.1693L114.136 21.6248C113.602 20.1322 114.456 18.2126 116.091 17.999V17.609H102.776V17.999C103.256 18.2497 104.944 19.7423 106.367 23.6164L107.469 26.6364C107.5 26.7223 107.53 26.8058 107.56 26.8871C107.871 27.739 108.089 28.3332 107.683 29.5519L105.123 35.8448L100.68 23.6164C99.294 19.7423 100.039 18.2497 100.821 17.999V17.609H93.6765C85.3572 17.609 78.3191 21.5366 78.3191 27.8272C78.3191 34.1178 82.7272 37.3536 88.3794 37.3722C93.1798 37.3722 96.9124 34.7074 96.9124 29.8722C96.9124 26.7803 94.3172 24.3616 91.0465 24.3616C90.443 24.3569 89.8441 24.4753 89.287 24.7051C88.7299 24.9372 88.2262 25.2808 87.8038 25.7125C87.3813 26.142 87.0517 26.655 86.8335 27.2167C86.6153 27.7808 86.5108 28.3797 86.5317 28.9832C86.5317 29.8281 86.866 30.6359 87.4648 31.2325C88.0614 31.829 88.8715 32.1656 89.7141 32.1656C90.5568 32.1656 91.3669 31.829 91.9634 31.2325C92.56 30.6359 92.8943 29.8281 92.8943 28.9832C92.8989 28.6582 92.8525 28.3332 92.7527 28.0245C92.6807 27.7761 92.7178 27.5974 93.001 27.6693C94.3172 27.9525 95.0971 29.2153 95.0971 30.5477C95.0902 31.1907 94.9555 31.8267 94.7002 32.4163C94.4449 33.0082 94.0758 33.5421 93.6139 33.9878C93.1496 34.4358 92.6041 34.784 92.0029 35.0184C91.404 35.2506 90.7633 35.362 90.1204 35.3457C86.8497 35.3457 85.1088 32.3792 85.1088 28.6814C85.132 26.843 85.6519 25.0463 86.6176 23.4818C87.5809 21.915 88.9528 20.6429 90.5846 19.7957C91.3251 20.7845 91.924 21.8732 92.3627 23.0292L92.6482 23.7395C94.0595 24.0319 95.3293 24.798 96.2485 25.9098V25.9098Z" fill="#EFB965"/>
<path fill-rule="evenodd" clip-rule="evenodd" d="M160.478 42.6159C160.406 41.8336 159.909 41.9404 158.985 42.5439C158.112 43.0732 157.107 43.3448 156.088 43.3262C150.612 43.3262 148.089 38.5282 148.089 33.108C148.089 27.6879 152.249 25.0742 155.645 25.0742C156.566 25.0533 157.481 25.2436 158.319 25.6266C159.157 26.012 159.895 26.583 160.48 27.2956L160.445 24.5217C160.41 21.6086 159.521 20.434 157.636 19.7957V19.35C159.213 19.0668 160.912 17.8574 162.407 16.7943C163.709 15.8658 164.858 15.0487 165.635 15.0487C166.919 15.0487 166.917 16.402 166.914 17.4558C166.914 37.9641 166.898 31.3671 166.982 46.8127C168.115 45.4269 169.521 44.5449 171.362 44.5449C177.762 44.5449 176.22 54.8791 166.309 52.2352C166.26 52.3164 164.686 55.3944 158.813 71.4877H154.333L150.956 60.8586C149.677 56.9497 147.792 55.4199 147.151 55.1716V54.7816H158.528V55.1716C157.745 55.4199 156.894 56.9496 158.173 60.8958L159.505 65.0903L164.498 51.4785C161.856 49.9 160.628 46.6804 160.48 42.6159H160.478ZM167.543 50.4084C169.175 51.8475 173.175 50.7542 172.692 49.1201C172.355 47.978 169.937 47.3397 167.543 50.4084ZM157.81 41.8336C159.765 41.8336 160.478 39.2037 160.478 33.9785V33.3379C160.478 28.1127 159.145 27.0821 157.81 27.0821C155.963 27.0821 155.18 29.2153 155.18 34.4753C155.18 39.7352 155.963 41.8336 157.81 41.8336Z" fill="#EFB965"/>
<path d="M96.6686 62.3698C91.8335 62.3698 89.2383 65.4617 89.2383 68.8739C89.2383 73.8507 93.0777 76.6107 100.615 76.6408C110.106 76.6408 116.079 70.262 116.079 60.2017C116.079 53.0221 111.991 47.0147 103.813 47.0147H89.6283V47.4047C90.4105 47.6368 91.9379 49.2895 91.9379 53.4121V62.7969C93.3887 61.9728 95.0345 61.555 96.7011 61.5875C97.4463 61.5829 98.1914 61.6525 98.9226 61.8011V51.2788C98.9226 48.881 99.7048 48.4353 100.522 48.4353H101.854C108.289 48.4353 109.036 53.9111 109.036 60.3805C109.036 68.412 106.815 75.2017 100.594 75.2017C96.0071 75.2017 93.7322 72.5369 93.7322 68.9807C93.7322 65.9608 95.1714 63.9691 96.8427 63.9691C98.2657 63.9691 99.0108 64.7514 99.0108 65.6056C99.0108 66.1836 98.6626 66.6107 98.2935 67.0634C97.8687 67.5856 97.4114 68.1427 97.4114 69.0178C97.4045 69.4032 97.4788 69.7862 97.625 70.1413C97.7712 70.4988 97.9917 70.8215 98.2657 71.0907C98.5419 71.36 98.8692 71.5712 99.2313 71.7105C99.5911 71.8475 99.9764 71.9125 100.362 71.8962C102.423 71.8962 103.704 69.7281 103.704 67.7017C103.704 64.6446 101.109 62.3698 96.6663 62.3698H96.6686Z" fill="#EFB965"/>
<path d="M119.918 65.5035V64.0063C119.918 61.0908 118.994 59.9185 117.11 59.2779V58.8368C118.688 58.5536 120.387 57.3327 121.884 56.2579C123.187 55.3248 124.333 54.5007 125.109 54.5007C126.246 54.5007 126.388 55.8865 126.388 56.9172C127.383 55.3178 128.769 53.5769 131.861 53.5769C132.439 53.5397 133.017 53.621 133.563 53.816C134.108 54.0109 134.607 54.315 135.03 54.712C135.452 55.1066 135.789 55.5848 136.019 56.1163C136.248 56.6479 136.367 57.2189 136.367 57.7969C136.367 58.3749 136.248 58.9483 136.019 59.4798C135.789 60.0114 135.452 60.4896 135.03 60.8842C134.607 61.2811 134.108 61.5852 133.563 61.7802C133.017 61.9752 132.439 62.0564 131.861 62.0193C129.728 62.0193 128.342 60.1344 128.342 58.2519C128.342 57.8271 128.416 57.4069 128.556 57.0077C128.734 56.367 128.804 56.0838 128.112 56.562C127.188 57.3094 126.406 58.6604 126.406 60.5615V65.5035C126.406 69.626 127.936 71.2788 128.718 71.5109V71.9009H117.609V71.5109C118.391 71.2788 119.918 69.6214 119.918 65.5035V65.5035Z" fill="#EFB965"/>
<path d="M139.257 64.0063V65.5035C139.257 69.6214 137.727 71.2788 136.963 71.5109V71.9009H148.038V71.5109C147.256 71.2788 145.726 69.626 145.726 65.5035V57.0611C145.726 55.9933 145.619 54.5007 144.447 54.5007C143.669 54.5007 142.523 55.3248 141.223 56.2579C139.728 57.3327 138.026 58.5536 136.448 58.8368V59.2779C138.333 59.9185 139.257 61.0908 139.257 64.0063V64.0063Z" fill="#EFB965"/>
<path d="M144.955 47.8619C144.303 47.2097 143.416 46.8429 142.493 46.8406C142.033 46.8406 141.578 46.9311 141.153 47.1075C140.728 47.2839 140.343 47.5416 140.018 47.8666C139.693 48.1916 139.435 48.5769 139.259 49.0017C139.083 49.4265 138.992 49.8814 138.992 50.3434C138.992 50.8053 139.083 51.2579 139.259 51.6827C139.435 52.1075 139.693 52.4928 140.018 52.8178C140.343 53.1428 140.728 53.4005 141.153 53.5769C141.578 53.7533 142.033 53.8438 142.493 53.8438C142.954 53.8485 143.412 53.7603 143.839 53.5838C144.266 53.4074 144.654 53.1474 144.979 52.8201C145.304 52.4928 145.559 52.1029 145.731 51.6734C145.902 51.244 145.986 50.7867 145.977 50.3248C145.977 49.4009 145.608 48.5165 144.955 47.8619V47.8619Z" fill="#EFB965"/>
<path d="M182.982 66.8359C182.978 66.2324 183.094 65.6335 183.326 65.0764C183.558 64.5193 183.899 64.0156 184.331 63.5931C184.763 63.1729 185.276 62.8433 185.837 62.6228C186.399 62.4046 187 62.3025 187.604 62.321C188.022 62.321 188.435 62.4046 188.82 62.5625C189.208 62.7226 189.558 62.9571 189.853 63.2519C190.148 63.549 190.382 63.8995 190.542 64.2848C190.703 64.6701 190.784 65.0856 190.784 65.5035C190.784 65.9213 190.703 66.3345 190.542 66.7198C190.382 67.1051 190.148 67.4557 189.853 67.7528C189.558 68.0476 189.208 68.282 188.82 68.4422C188.435 68.6023 188.022 68.6836 187.604 68.6836C187.276 68.6882 186.954 68.6418 186.643 68.542C186.394 68.47 186.199 68.5072 186.288 68.7904C186.573 70.1228 188.99 71.2788 191.264 71.2788C193.256 71.2788 194.375 70.6381 194.375 69.3243C194.375 68.1497 193.131 67.3326 191.531 66.5504C191.631 66.2045 191.68 65.8447 191.673 65.4849C191.666 64.9603 191.557 64.4403 191.348 63.9575C191.141 63.477 190.842 63.0383 190.464 62.6715C190.087 62.3071 189.644 62.017 189.154 61.822C188.667 61.6293 188.147 61.5318 187.62 61.5388C186.608 61.5318 185.612 61.8011 184.742 62.321C184.106 61.5109 183.767 60.5081 183.781 59.4775C183.781 56.6688 187.977 54.5007 192.225 54.5007C196.225 54.5007 199.015 56.0304 199.015 57.5578C198.976 58.0221 198.795 58.4608 198.495 58.8183C198.196 59.1734 197.794 59.4288 197.344 59.5495L196.989 59.3707C196.989 57.6994 195.424 55.9237 193.291 55.9237C192.081 55.9237 190.554 56.4924 190.554 57.6298C190.554 58.6488 192.119 59.4845 193.98 60.478C196.724 61.9427 200.118 63.7532 200.118 67.0123C200.118 70.7449 195.921 72.7017 191.55 72.7017C186.573 72.7133 182.982 70.4756 182.982 66.8359V66.8359Z" fill="#EFB965"/>
<path fill-rule="evenodd" clip-rule="evenodd" d="M164.774 63.2054C164.765 62.003 164.995 60.8099 165.45 59.698C165.905 58.5861 166.578 57.5741 167.427 56.7245C168.277 55.8749 169.289 55.2017 170.401 54.7468C171.513 54.2895 172.706 54.0597 173.908 54.069C178.957 54.069 181.374 57.0193 182.121 61.5713C182.297 62.7435 181.801 63.7927 179.419 63.7927C173.588 63.8995 169.679 64.9998 172.557 68.7672C174.725 71.5759 177.446 70.9004 178.53 67.4881H181.942C181.318 68.9134 180.294 70.1251 178.994 70.9793C177.694 71.8335 176.174 72.2955 174.619 72.3047C168.753 72.3047 164.772 68.2518 164.772 63.2054H164.774ZM176.185 59.7259C176.185 56.6154 175.19 55.4965 173.662 55.4965C171.956 55.4965 171.387 58.3053 171.387 63.2101V63.4933C172.518 62.9663 173.409 62.7017 174.099 62.4951C175.642 62.0378 176.185 61.8754 176.185 59.7259Z" fill="#EFB965"/>
</svg>
